G04*
G04 #@! TF.GenerationSoftware,Altium Limited,Altium Designer,24.2.2 (26)*
G04*
G04 Layer_Physical_Order=4*
G04 Layer_Color=16711680*
%FSLAX44Y44*%
%MOMM*%
G71*
G04*
G04 #@! TF.SameCoordinates,645CA30E-D4FA-4833-928D-5676ED25105E*
G04*
G04*
G04 #@! TF.FilePolarity,Positive*
G04*
G01*
G75*
%ADD12C,0.5080*%
%ADD14C,0.2540*%
%ADD66C,1.5000*%
%ADD68C,0.3810*%
%ADD70O,3.0160X1.5080*%
%ADD71O,1.5080X3.0160*%
%ADD72C,1.5240*%
%ADD73R,1.5240X1.5240*%
%ADD74C,3.2512*%
%ADD75C,1.9050*%
%ADD76C,2.3622*%
%ADD77C,1.9950*%
%ADD78C,1.6500*%
%ADD79C,1.4280*%
%ADD80R,1.5240X1.5240*%
%ADD81C,2.3000*%
%ADD82R,1.4280X1.4280*%
%ADD83C,0.5080*%
%ADD84C,3.0000*%
%ADD85C,0.7620*%
%ADD86C,3.0000*%
D12*
X699770Y45720D02*
X707390D01*
X692150D02*
X699770D01*
X647700D02*
X671830D01*
X269240D02*
X647700D01*
X671830D02*
X692150D01*
X960882Y703580D02*
X993140D01*
X243840Y71120D02*
X269240Y45720D01*
X243840Y71120D02*
Y109220D01*
X242570Y110490D02*
X243840Y109220D01*
X707390Y45720D02*
X717550D01*
X789940D01*
D14*
X708660Y109220D02*
X918210D01*
X619610Y114808D02*
X703072D01*
X708660Y109220D01*
X812800Y651510D02*
X829310Y635000D01*
X259080Y637540D02*
X273050Y651510D01*
X812800D01*
X570230Y132080D02*
Y513080D01*
X543560Y111760D02*
X549910D01*
X570230Y132080D01*
X753110Y7620D02*
X822960D01*
X725170Y35560D02*
X753110Y7620D01*
X904240Y614680D02*
X916940Y627380D01*
X979170D01*
X989330Y626110D02*
Y631190D01*
Y621030D02*
Y626110D01*
X986790Y618490D02*
X989330Y621030D01*
X985520Y635000D02*
X989330Y631190D01*
X970280Y618490D02*
X986790D01*
X829310Y635000D02*
X985520D01*
X989330Y626110D02*
X1358900D01*
X1385570Y652780D01*
X927100Y618490D02*
X970280D01*
X914400Y605790D02*
X927100Y618490D01*
X1385570Y678180D02*
X1399540D01*
X1380490Y661670D02*
Y673100D01*
X1385570Y678180D01*
X1357630Y638810D02*
X1380490Y661670D01*
X1385570Y652780D02*
X1399540D01*
X669290Y165100D02*
Y335280D01*
X679450Y165100D02*
Y331470D01*
X745490Y397510D01*
X627380Y148590D02*
X908050D01*
X914400Y154940D01*
X902186Y155426D02*
X906780Y160020D01*
X611356Y155426D02*
X902186D01*
X616562Y111760D02*
X619610Y114808D01*
X600710Y111760D02*
X616562D01*
X914400Y154940D02*
Y541020D01*
X906780Y160020D02*
Y531912D01*
X904240Y534452D02*
X906780Y531912D01*
X914400Y137160D02*
X929640Y152400D01*
X694690Y137160D02*
X914400D01*
X669290Y335280D02*
X739140Y405130D01*
X862330Y397510D02*
X869950Y405130D01*
Y416560D01*
X745490Y397510D02*
X862330D01*
X739140Y405130D02*
X858520D01*
X904240Y534452D02*
Y614680D01*
X734060Y66040D02*
X857250D01*
X735330Y80010D02*
X763270D01*
X278130Y646430D02*
X806450D01*
X172720Y624840D02*
X256540D01*
X278130Y646430D01*
X163830Y637540D02*
X259080D01*
X806450Y646430D02*
X828040Y624840D01*
X894080D01*
X904240Y614680D01*
X929640Y152400D02*
Y154940D01*
X166370Y556260D02*
X172720Y562610D01*
Y624840D01*
X914400Y541020D02*
Y605790D01*
X721360Y103632D02*
X772160D01*
X793750Y490220D02*
Y519430D01*
X410210Y250190D02*
X564642D01*
X388620Y228600D02*
X410210Y250190D01*
X994410Y638810D02*
X1357630D01*
X163830Y572770D02*
Y637540D01*
X153670Y562610D02*
X163830Y572770D01*
X863600Y749300D02*
X876300Y736600D01*
X819150Y749300D02*
X863600D01*
X359410Y242570D02*
Y363220D01*
X553234Y104924D02*
X553720Y105410D01*
X461593Y115570D02*
X462863Y116840D01*
X424180Y115570D02*
X461593D01*
X462863Y116840D02*
X463550D01*
X480060Y138430D02*
X513588Y104902D01*
X415290Y138430D02*
X480060D01*
X102870Y314960D02*
Y328930D01*
X821690Y518160D02*
Y535940D01*
X513588Y104902D02*
X548415D01*
X548437Y104924D01*
X553234D01*
X149352Y268478D02*
X190275D01*
X186690Y264160D02*
X199390Y251460D01*
X190275Y268478D02*
X198896Y259856D01*
X101459Y308469D02*
X101741D01*
X146050Y264160D01*
X102870Y314960D02*
X149352Y268478D01*
X146050Y264160D02*
X186690D01*
D66*
X897890Y784860D02*
D03*
X993140Y220980D02*
D03*
X242570Y180340D02*
D03*
X48260Y542290D02*
D03*
X210820Y750570D02*
D03*
X260350Y309880D02*
D03*
X1449070Y789940D02*
D03*
X1447800Y17780D02*
D03*
X60960Y16510D02*
D03*
X59690Y789940D02*
D03*
D68*
X698500Y46990D02*
X699770Y45720D01*
X687313Y62859D02*
Y65797D01*
X687070Y66040D02*
X687313Y65797D01*
Y62859D02*
X698500Y51672D01*
X647700Y45720D02*
X661670Y59690D01*
X681990Y55880D02*
X692150Y45720D01*
X1389380Y617220D02*
X1399540Y627380D01*
X929640Y154940D02*
Y596900D01*
X281940Y638810D02*
X801370D01*
X251703Y611113D02*
X254243D01*
X251460Y610870D02*
X251703Y611113D01*
X254243D02*
X281940Y638810D01*
X829310Y610870D02*
X834390D01*
X801370Y638810D02*
X829310Y610870D01*
X717550Y45720D02*
Y58420D01*
X709930Y66040D02*
X717550Y58420D01*
X698500Y46990D02*
Y51672D01*
X671830Y45720D02*
Y58420D01*
X262890Y550872D02*
Y584200D01*
X251460Y595630D02*
X262890Y584200D01*
X246380Y548640D02*
X260658D01*
X262890Y550872D01*
X251460Y595630D02*
Y610870D01*
X244193Y546453D02*
X246380Y548640D01*
X233680Y243840D02*
Y297180D01*
Y529590D01*
X200660Y210820D02*
X233680Y243840D01*
Y529590D02*
X244193Y540103D01*
Y546453D01*
X929640Y596900D02*
X943610Y610870D01*
X1056640Y617220D02*
X1389380D01*
X69850Y332740D02*
Y341630D01*
X707390Y45720D02*
Y53340D01*
X701040Y59690D02*
X707390Y53340D01*
X46990Y224790D02*
Y309880D01*
X69850Y332740D01*
X72390Y210820D02*
Y318770D01*
Y210820D02*
X200660D01*
D70*
X1323340Y666440D02*
D03*
Y726440D02*
D03*
D71*
X1276340Y696440D02*
D03*
D72*
X1056640Y25400D02*
D03*
X1082040D02*
D03*
X1107440D02*
D03*
X928370Y64770D02*
D03*
X953770D02*
D03*
X928370Y24130D02*
D03*
X953770D02*
D03*
X489966Y605790D02*
D03*
X500126Y580390D02*
D03*
X378206D02*
D03*
X418846D02*
D03*
X398526D02*
D03*
X429006Y605790D02*
D03*
X408686D02*
D03*
X469646D02*
D03*
X449326D02*
D03*
X479806Y580390D02*
D03*
X459486D02*
D03*
X242570Y110490D02*
D03*
Y135890D02*
D03*
X1399540Y652780D02*
D03*
Y678180D02*
D03*
Y703580D02*
D03*
Y770890D02*
D03*
Y745490D02*
D03*
X1093470Y590550D02*
D03*
X1118870D02*
D03*
X246380Y574040D02*
D03*
Y548640D02*
D03*
D73*
X1132840Y25400D02*
D03*
X388366Y605790D02*
D03*
D74*
X390906Y671830D02*
D03*
X487426D02*
D03*
D75*
X363982Y735330D02*
D03*
Y760730D02*
D03*
X514350Y709930D02*
D03*
Y735330D02*
D03*
Y760730D02*
D03*
D76*
X351282Y671830D02*
D03*
X527050D02*
D03*
D77*
X851250Y731550D02*
D03*
X706250D02*
D03*
X857250Y781050D02*
D03*
X700250D02*
D03*
D78*
X1228090Y739140D02*
D03*
X1177290D02*
D03*
D79*
X132410Y111920D02*
D03*
Y131920D02*
D03*
Y86920D02*
D03*
D80*
X1399540Y627380D02*
D03*
D81*
X105310Y56220D02*
D03*
Y187620D02*
D03*
D82*
X132410Y156920D02*
D03*
D83*
X866140Y78740D02*
D03*
X842010Y15240D02*
D03*
X711200Y34290D02*
D03*
X107950Y731520D02*
D03*
X203200Y233680D02*
D03*
X552450Y260350D02*
D03*
X372110Y232410D02*
D03*
X654050Y165100D02*
D03*
X849630Y414020D02*
D03*
X786130Y78740D02*
D03*
X783590Y118110D02*
D03*
X614680Y104140D02*
D03*
X662940Y77470D02*
D03*
X619760Y80010D02*
D03*
X694690Y486410D02*
D03*
X707390D02*
D03*
X681990Y476250D02*
D03*
X668020Y450850D02*
D03*
X882650Y353060D02*
D03*
X543560Y111760D02*
D03*
X822960Y7620D02*
D03*
X979170Y627380D02*
D03*
X970280Y618490D02*
D03*
X669290Y165100D02*
D03*
X679450D02*
D03*
X627380Y148590D02*
D03*
X611356Y155426D02*
D03*
X632460Y109220D02*
D03*
X646430Y103632D02*
D03*
X600710Y111760D02*
D03*
X608330Y144780D02*
D03*
X694690Y137160D02*
D03*
X858520Y405130D02*
D03*
X883920Y323850D02*
D03*
X725170Y35560D02*
D03*
X852170Y36830D02*
D03*
X605207Y449941D02*
D03*
X857250Y66040D02*
D03*
X734060D02*
D03*
X763270Y80010D02*
D03*
X735330D02*
D03*
X880110Y393700D02*
D03*
X503942Y448997D02*
D03*
X576580Y449580D02*
D03*
X516890D02*
D03*
X529590D02*
D03*
X543560D02*
D03*
X560070D02*
D03*
X595630Y411480D02*
D03*
X628650Y416560D02*
D03*
X554990Y156210D02*
D03*
X510540Y149860D02*
D03*
X519430Y80010D02*
D03*
X388620Y228600D02*
D03*
X885190Y293370D02*
D03*
X717550Y415290D02*
D03*
X543560Y476250D02*
D03*
X628650Y69850D02*
D03*
X558800Y492760D02*
D03*
X577342Y476250D02*
D03*
X701040Y59690D02*
D03*
X709930Y66040D02*
D03*
X687070D02*
D03*
X681990Y55880D02*
D03*
X671830Y58420D02*
D03*
X661670Y59690D02*
D03*
X571500Y107950D02*
D03*
X580390Y135890D02*
D03*
X558800D02*
D03*
X722630Y114808D02*
D03*
X603038Y80222D02*
D03*
X584200Y165100D02*
D03*
X1056640Y598170D02*
D03*
X852170Y600710D02*
D03*
X744220Y491490D02*
D03*
X807720Y500380D02*
D03*
X233680Y297180D02*
D03*
X1041400Y452120D02*
D03*
X1042670Y472440D02*
D03*
X180340Y645160D02*
D03*
X939800Y590550D02*
D03*
X242570Y322580D02*
D03*
X274320Y124460D02*
D03*
X961390Y643890D02*
D03*
X345440Y360680D02*
D03*
X180340Y567690D02*
D03*
X410210Y120650D02*
D03*
X236220Y608330D02*
D03*
X965200Y382270D02*
D03*
Y353060D02*
D03*
X966470Y322580D02*
D03*
X965200Y293370D02*
D03*
X617220Y449580D02*
D03*
X629920D02*
D03*
X642620D02*
D03*
X654050D02*
D03*
X690880Y413004D02*
D03*
X702310D02*
D03*
X643890D02*
D03*
X655189D02*
D03*
X679450D02*
D03*
X666750D02*
D03*
X929640Y477520D02*
D03*
X904240Y534670D02*
D03*
X869950Y416560D02*
D03*
X576580Y496570D02*
D03*
X918210Y109220D02*
D03*
X721360Y103632D02*
D03*
X772160D02*
D03*
X793750Y519430D02*
D03*
Y490220D02*
D03*
X564642Y250190D02*
D03*
X570230Y513080D02*
D03*
X764540Y742950D02*
D03*
X168910Y528320D02*
D03*
X172720Y624840D02*
D03*
X163830Y637540D02*
D03*
X920750Y773430D02*
D03*
X942340D02*
D03*
X570230Y565150D02*
D03*
X819150Y749300D02*
D03*
X530860Y80010D02*
D03*
X582930D02*
D03*
X251460Y610870D02*
D03*
X166370Y556260D02*
D03*
X153670Y562610D02*
D03*
X553720Y105410D02*
D03*
X463550Y116840D02*
D03*
X424180Y115570D02*
D03*
X415290Y138430D02*
D03*
X810260Y742950D02*
D03*
X750570D02*
D03*
X779780D02*
D03*
X599440Y135890D02*
D03*
X102870Y661670D02*
D03*
X1056640Y617220D02*
D03*
X994410Y638810D02*
D03*
X914400Y541020D02*
D03*
X943610Y610870D02*
D03*
X876300Y736600D02*
D03*
X66040Y485140D02*
D03*
X68580Y687070D02*
D03*
X71120Y637540D02*
D03*
X88900Y400050D02*
D03*
X90170Y485140D02*
D03*
X92710Y637540D02*
D03*
X104140Y712470D02*
D03*
X119380Y485140D02*
D03*
X124460Y723900D02*
D03*
X139700Y629920D02*
D03*
X149860Y438150D02*
D03*
X152541Y723759D02*
D03*
X161290Y491490D02*
D03*
X69850Y341630D02*
D03*
X72390Y318770D02*
D03*
X101459Y308469D02*
D03*
X102870Y328930D02*
D03*
X542290Y80010D02*
D03*
X532130Y476250D02*
D03*
X554990D02*
D03*
X789940Y45720D02*
D03*
X821690Y518160D02*
D03*
Y535940D02*
D03*
X734060Y742950D02*
D03*
X834390Y610870D02*
D03*
X562610Y80010D02*
D03*
X46990Y224790D02*
D03*
X72390Y210820D02*
D03*
X95250Y237490D02*
D03*
X180340D02*
D03*
X181610Y393700D02*
D03*
X198896Y259856D02*
D03*
X199390Y251460D02*
D03*
X359410Y242570D02*
D03*
Y363220D02*
D03*
X165100Y688340D02*
D03*
X646430Y135890D02*
D03*
X662940D02*
D03*
D84*
X24130Y22860D02*
D03*
X22860Y783590D02*
D03*
X1485900Y25400D02*
D03*
Y784860D02*
D03*
D85*
X960882Y703580D02*
D03*
X1027430Y647700D02*
D03*
X1264920Y655320D02*
D03*
X1003300Y647700D02*
D03*
X1049020Y657860D02*
D03*
X934720Y664210D02*
D03*
X993140Y703580D02*
D03*
X1074420Y767080D02*
D03*
X1056640D02*
D03*
D86*
X1131570Y198120D02*
D03*
X1431290Y199390D02*
D03*
Y499110D02*
D03*
X1131570Y497840D02*
D03*
M02*
