G04*
G04 #@! TF.GenerationSoftware,Altium Limited,Altium Designer,24.2.2 (26)*
G04*
G04 Layer_Physical_Order=1*
G04 Layer_Color=255*
%FSLAX44Y44*%
%MOMM*%
G71*
G04*
G04 #@! TF.SameCoordinates,645CA30E-D4FA-4833-928D-5676ED25105E*
G04*
G04*
G04 #@! TF.FilePolarity,Positive*
G04*
G01*
G75*
%ADD12C,0.5080*%
%ADD14C,0.2540*%
%ADD18R,0.2000X0.7000*%
%ADD19R,0.8000X0.8000*%
%ADD20R,1.2000X1.5000*%
%ADD21R,0.3000X1.9000*%
%ADD22R,0.8000X0.8000*%
%ADD23R,1.5000X1.2000*%
%ADD24R,1.8500X0.6000*%
%ADD25R,1.6500X0.6000*%
%ADD26R,0.6000X0.7000*%
%ADD27R,0.6000X1.2500*%
%ADD28R,1.2000X0.8000*%
%ADD29R,2.0000X1.5000*%
G04:AMPARAMS|DCode=30|XSize=1.97mm|YSize=0.6mm|CornerRadius=0.075mm|HoleSize=0mm|Usage=FLASHONLY|Rotation=270.000|XOffset=0mm|YOffset=0mm|HoleType=Round|Shape=RoundedRectangle|*
%AMROUNDEDRECTD30*
21,1,1.9700,0.4500,0,0,270.0*
21,1,1.8200,0.6000,0,0,270.0*
1,1,0.1500,-0.2250,-0.9100*
1,1,0.1500,-0.2250,0.9100*
1,1,0.1500,0.2250,0.9100*
1,1,0.1500,0.2250,-0.9100*
%
%ADD30ROUNDEDRECTD30*%
%ADD31R,0.6750X0.2500*%
%ADD32R,0.2500X0.5750*%
%ADD33R,0.4000X0.4000*%
%ADD66C,1.5000*%
%ADD68C,0.3810*%
%ADD69C,0.2032*%
%ADD70O,3.0160X1.5080*%
%ADD71O,1.5080X3.0160*%
%ADD72C,1.5240*%
%ADD73R,1.5240X1.5240*%
%ADD74C,3.2512*%
%ADD75C,1.9050*%
%ADD76C,2.3622*%
%ADD77C,1.9950*%
%ADD78C,1.6500*%
%ADD79C,1.4280*%
%ADD80R,1.5240X1.5240*%
%ADD81C,2.3000*%
%ADD82R,1.4280X1.4280*%
%ADD83C,0.5080*%
%ADD84C,3.0000*%
%ADD85C,0.7620*%
%ADD86C,3.0000*%
D12*
X1177290Y725612D02*
Y739140D01*
X1169228Y717550D02*
X1177290Y725612D01*
X1169228Y717550D02*
X1286510D01*
X1143000D02*
X1169228D01*
X1104900Y679450D02*
X1143000Y717550D01*
X1318466Y671059D02*
Y685594D01*
X1286510Y717550D02*
X1318466Y685594D01*
Y671059D02*
X1323085Y666440D01*
X1323340D01*
X1061720Y683960D02*
Y692080D01*
Y664210D02*
Y683960D01*
X132410Y156920D02*
X188520D01*
X1074420Y683960D02*
Y685230D01*
Y679910D02*
Y683960D01*
X952602Y711172D02*
X960195Y703580D01*
X960882D01*
X935990Y723900D02*
X948718Y711172D01*
X952602D01*
X1043940Y90170D02*
X1071540Y117770D01*
X834390Y90170D02*
X1043940D01*
X789940Y45720D02*
X834390Y90170D01*
X1071540Y117770D02*
Y590550D01*
X188520Y156920D02*
X209550Y135890D01*
X242570D01*
Y180340D01*
X1142564Y574040D02*
X1156970Y588446D01*
Y610870D01*
X1109980Y574040D02*
X1142564D01*
X1093470Y590550D02*
X1109980Y574040D01*
X1092200Y617220D02*
X1118870Y590550D01*
X1092200Y617220D02*
Y631190D01*
X1092540Y631530D02*
Y633730D01*
X1092200Y631190D02*
X1092540Y631530D01*
X1071540Y590550D02*
Y633730D01*
Y590550D02*
X1093470D01*
X1071540Y633730D02*
X1073150Y635340D01*
Y652780D01*
X1061720Y664210D02*
X1073150Y652780D01*
X881380Y751840D02*
Y768350D01*
X897890Y784860D01*
X881380Y751840D02*
X895350Y737870D01*
X914400D01*
X924560Y671830D02*
X932180Y664210D01*
X934720D01*
X993140Y703580D02*
X1050265D01*
X1057277Y696568D01*
Y696523D02*
Y696568D01*
Y696523D02*
X1061720Y692080D01*
X1074420Y666750D02*
Y679910D01*
X1074880Y679450D01*
X1104900D01*
X934080Y721990D02*
X935990Y723900D01*
Y737870D01*
X1074420Y666750D02*
X1092540Y648630D01*
Y635000D02*
Y648630D01*
X934080Y708460D02*
Y721990D01*
X1264285Y655955D02*
X1264920Y655320D01*
X924560Y671830D02*
Y683460D01*
X914400Y737870D02*
X914720Y737550D01*
Y708780D02*
Y737550D01*
Y708780D02*
X915040Y708460D01*
D14*
X415290Y138430D02*
Y152400D01*
X359410Y208280D02*
X415290Y152400D01*
X359410Y208280D02*
Y242570D01*
X979170Y647700D02*
Y755650D01*
Y627380D02*
Y647700D01*
X980440Y646430D02*
X986790D01*
X979170Y647700D02*
X980440Y646430D01*
X979170Y755650D02*
X982980Y759460D01*
X1028592D01*
X970280Y618490D02*
Y756920D01*
X979170Y765810D01*
X373874Y259856D02*
X424180Y209550D01*
Y115570D02*
Y209550D01*
X510540Y69850D02*
X628650D01*
X463550Y116840D02*
X510540Y69850D01*
X388620Y228600D02*
Y234950D01*
X372110Y251460D02*
X388620Y234950D01*
X199390Y251460D02*
X372110D01*
X157480Y637540D02*
X163830D01*
X151520Y643500D02*
X157480Y637540D01*
X198896Y259856D02*
X373874D01*
X816250Y736870D02*
X819150Y739770D01*
Y749300D01*
X816250Y722550D02*
Y736870D01*
X306300Y720430D02*
X349082D01*
X290830Y706460D02*
X292330D01*
X306300Y720430D01*
X124460Y556260D02*
X166370D01*
X116840Y548640D02*
X124460Y556260D01*
X110490Y552450D02*
X120650Y562610D01*
X153670D01*
X297060Y425570D02*
X359410Y363220D01*
X297060Y425570D02*
Y680730D01*
X888800Y708460D02*
Y724100D01*
X876300Y736600D02*
X888800Y724100D01*
X986790Y646430D02*
X994410Y638810D01*
X151520Y643500D02*
Y662030D01*
X979170Y765810D02*
X1040130D01*
X1028592Y759460D02*
X1036320Y751732D01*
Y734630D02*
Y751732D01*
X1040130Y765810D02*
X1049020Y756920D01*
Y734630D02*
Y756920D01*
X290830Y685460D02*
X292330D01*
X297060Y680730D01*
X349082Y720430D02*
X363982Y735330D01*
X888800Y708460D02*
X915040D01*
X88900Y330630D02*
X90600Y328930D01*
X110490Y523240D02*
Y552450D01*
X116840Y527050D02*
Y548640D01*
X90600Y328930D02*
X102870D01*
X110490Y523240D02*
X117920Y515810D01*
X116840Y527050D02*
X120080Y523810D01*
X117920Y515810D02*
X127700D01*
X120080Y523810D02*
X127700D01*
D18*
X519430Y431480D02*
D03*
Y462280D02*
D03*
X523430Y431480D02*
D03*
Y462280D02*
D03*
X527430Y431480D02*
D03*
Y462280D02*
D03*
X531430Y431480D02*
D03*
Y462280D02*
D03*
X535430Y431480D02*
D03*
Y462280D02*
D03*
X539430Y431480D02*
D03*
Y462280D02*
D03*
X543430Y431480D02*
D03*
Y462280D02*
D03*
X547430Y431480D02*
D03*
Y462280D02*
D03*
X551430Y431480D02*
D03*
Y462280D02*
D03*
X555430Y431480D02*
D03*
Y462280D02*
D03*
X559430Y431480D02*
D03*
Y462280D02*
D03*
X563430Y431480D02*
D03*
Y462280D02*
D03*
X567430Y431480D02*
D03*
Y462280D02*
D03*
X571430Y431480D02*
D03*
Y462280D02*
D03*
X575430Y431480D02*
D03*
Y462280D02*
D03*
X579430Y431480D02*
D03*
Y462280D02*
D03*
X583430Y431480D02*
D03*
Y462280D02*
D03*
X587430Y431480D02*
D03*
Y462280D02*
D03*
X591430Y431480D02*
D03*
Y462280D02*
D03*
X595430Y431480D02*
D03*
Y462280D02*
D03*
X599430Y431480D02*
D03*
Y462280D02*
D03*
X603430Y431480D02*
D03*
Y462280D02*
D03*
X607430Y431480D02*
D03*
Y462280D02*
D03*
X611430Y431480D02*
D03*
Y462280D02*
D03*
X615430Y431480D02*
D03*
Y462280D02*
D03*
X619430Y431480D02*
D03*
Y462280D02*
D03*
X623430Y431480D02*
D03*
Y462280D02*
D03*
X627430Y431480D02*
D03*
Y462280D02*
D03*
X631430Y431480D02*
D03*
Y462280D02*
D03*
X635430Y431480D02*
D03*
Y462280D02*
D03*
X639430Y431480D02*
D03*
Y462280D02*
D03*
X643430Y431480D02*
D03*
Y462280D02*
D03*
X647430Y431480D02*
D03*
Y462280D02*
D03*
X651430Y431480D02*
D03*
Y462280D02*
D03*
X655430Y431480D02*
D03*
Y462280D02*
D03*
X659430Y431480D02*
D03*
Y462280D02*
D03*
X663430Y431480D02*
D03*
Y462280D02*
D03*
X667430Y431480D02*
D03*
Y462280D02*
D03*
X671430Y431480D02*
D03*
Y462280D02*
D03*
X675430Y431480D02*
D03*
Y462280D02*
D03*
X679430Y431480D02*
D03*
Y462280D02*
D03*
X683430Y431480D02*
D03*
Y462280D02*
D03*
X687430Y431480D02*
D03*
Y462280D02*
D03*
X691430Y431480D02*
D03*
Y462280D02*
D03*
X695430Y431480D02*
D03*
Y462280D02*
D03*
X699430Y431480D02*
D03*
Y462280D02*
D03*
X703430Y431480D02*
D03*
Y462280D02*
D03*
X707430Y431480D02*
D03*
Y462280D02*
D03*
X711430Y431480D02*
D03*
Y462280D02*
D03*
X715430Y431480D02*
D03*
Y462280D02*
D03*
X518810Y92710D02*
D03*
Y123510D02*
D03*
X522810Y92710D02*
D03*
Y123510D02*
D03*
X526810Y92710D02*
D03*
Y123510D02*
D03*
X530810Y92710D02*
D03*
Y123510D02*
D03*
X534810Y92710D02*
D03*
Y123510D02*
D03*
X538810Y92710D02*
D03*
Y123510D02*
D03*
X542810Y92710D02*
D03*
Y123510D02*
D03*
X546810Y92710D02*
D03*
Y123510D02*
D03*
X550810Y92710D02*
D03*
Y123510D02*
D03*
X554810Y92710D02*
D03*
Y123510D02*
D03*
X558810Y92710D02*
D03*
Y123510D02*
D03*
X562810Y92710D02*
D03*
Y123510D02*
D03*
X566810Y92710D02*
D03*
Y123510D02*
D03*
X570810Y92710D02*
D03*
Y123510D02*
D03*
X574810Y92710D02*
D03*
Y123510D02*
D03*
X578810Y92710D02*
D03*
Y123510D02*
D03*
X582810Y92710D02*
D03*
Y123510D02*
D03*
X586810Y92710D02*
D03*
Y123510D02*
D03*
X590810Y92710D02*
D03*
Y123510D02*
D03*
X594810Y92710D02*
D03*
Y123510D02*
D03*
X598810Y92710D02*
D03*
Y123510D02*
D03*
X602810Y92710D02*
D03*
Y123510D02*
D03*
X606810Y92710D02*
D03*
Y123510D02*
D03*
X610810Y92710D02*
D03*
Y123510D02*
D03*
X614810Y92710D02*
D03*
Y123510D02*
D03*
X618810Y92710D02*
D03*
Y123510D02*
D03*
X622810Y92710D02*
D03*
Y123510D02*
D03*
X626810Y92710D02*
D03*
Y123510D02*
D03*
X630810Y92710D02*
D03*
Y123510D02*
D03*
X634810Y92710D02*
D03*
Y123510D02*
D03*
X638810Y92710D02*
D03*
Y123510D02*
D03*
X642810Y92710D02*
D03*
Y123510D02*
D03*
X646810Y92710D02*
D03*
Y123510D02*
D03*
X650810Y92710D02*
D03*
Y123510D02*
D03*
X654810Y92710D02*
D03*
Y123510D02*
D03*
X658810Y92710D02*
D03*
Y123510D02*
D03*
X662810Y92710D02*
D03*
Y123510D02*
D03*
X666810Y92710D02*
D03*
Y123510D02*
D03*
X670810Y92710D02*
D03*
Y123510D02*
D03*
X674810Y92710D02*
D03*
Y123510D02*
D03*
X678810Y92710D02*
D03*
Y123510D02*
D03*
X682810Y92710D02*
D03*
Y123510D02*
D03*
X686810Y92710D02*
D03*
Y123510D02*
D03*
X690810Y92710D02*
D03*
Y123510D02*
D03*
X694810Y92710D02*
D03*
Y123510D02*
D03*
X698810Y92710D02*
D03*
Y123510D02*
D03*
X702810Y92710D02*
D03*
Y123510D02*
D03*
X706810Y92710D02*
D03*
Y123510D02*
D03*
X710810Y92710D02*
D03*
Y123510D02*
D03*
X714810Y92710D02*
D03*
Y123510D02*
D03*
D19*
X767080Y35680D02*
D03*
Y50680D02*
D03*
X1011040Y448310D02*
D03*
X1026040D02*
D03*
X1011160Y468630D02*
D03*
X1026160D02*
D03*
X1164590Y660280D02*
D03*
Y645280D02*
D03*
X62230Y760610D02*
D03*
Y745610D02*
D03*
X67310Y435730D02*
D03*
Y450730D02*
D03*
D20*
X797220Y24130D02*
D03*
X818220D02*
D03*
X1224620Y656590D02*
D03*
X1203620D02*
D03*
X122260Y443230D02*
D03*
X101260D02*
D03*
X92710Y749300D02*
D03*
X113710D02*
D03*
X1071540Y633730D02*
D03*
X1092540D02*
D03*
X162900Y749300D02*
D03*
X141900D02*
D03*
D21*
X731250Y722550D02*
D03*
X736250D02*
D03*
X741250D02*
D03*
X746250D02*
D03*
X751250D02*
D03*
X756250D02*
D03*
X761250D02*
D03*
X766250D02*
D03*
X771250D02*
D03*
X781250D02*
D03*
X791250D02*
D03*
X796250D02*
D03*
X801250D02*
D03*
X806250D02*
D03*
X811250D02*
D03*
X816250D02*
D03*
X821250D02*
D03*
X786250D02*
D03*
X776250D02*
D03*
D22*
X90170Y516650D02*
D03*
Y501650D02*
D03*
X66040Y516650D02*
D03*
Y501650D02*
D03*
X935990Y737870D02*
D03*
Y752870D02*
D03*
X914400Y737870D02*
D03*
Y752870D02*
D03*
X1027430Y610990D02*
D03*
Y625990D02*
D03*
X1003300Y610990D02*
D03*
Y625990D02*
D03*
X66040Y652900D02*
D03*
Y667900D02*
D03*
X62230Y719970D02*
D03*
Y704970D02*
D03*
X87630Y652900D02*
D03*
Y667900D02*
D03*
X582930Y614560D02*
D03*
Y599560D02*
D03*
D23*
X1042670Y560070D02*
D03*
Y539070D02*
D03*
X1003300Y560070D02*
D03*
Y539070D02*
D03*
X99060Y604520D02*
D03*
Y583520D02*
D03*
X290830Y706460D02*
D03*
Y685460D02*
D03*
X622300Y677840D02*
D03*
Y698840D02*
D03*
X958850Y539410D02*
D03*
Y560410D02*
D03*
X868680Y541950D02*
D03*
Y562950D02*
D03*
X68580Y604860D02*
D03*
Y583860D02*
D03*
D24*
X937930Y293070D02*
D03*
Y303070D02*
D03*
Y313070D02*
D03*
Y323070D02*
D03*
Y333070D02*
D03*
Y343070D02*
D03*
Y353070D02*
D03*
Y363070D02*
D03*
Y373070D02*
D03*
Y383070D02*
D03*
Y393070D02*
D03*
Y403070D02*
D03*
Y413070D02*
D03*
Y423070D02*
D03*
Y433070D02*
D03*
D25*
X900430Y293070D02*
D03*
Y323070D02*
D03*
Y353070D02*
D03*
Y363070D02*
D03*
Y373070D02*
D03*
Y383070D02*
D03*
Y393070D02*
D03*
Y403070D02*
D03*
Y413070D02*
D03*
Y423070D02*
D03*
Y433070D02*
D03*
Y313070D02*
D03*
Y303070D02*
D03*
Y343070D02*
D03*
Y333070D02*
D03*
D26*
X59690Y210820D02*
D03*
X49690D02*
D03*
D27*
X934080Y708460D02*
D03*
X915040D02*
D03*
X924560Y683460D02*
D03*
D28*
X88900Y286630D02*
D03*
Y297630D02*
D03*
Y308630D02*
D03*
Y319630D02*
D03*
Y330630D02*
D03*
Y341630D02*
D03*
Y352630D02*
D03*
Y363630D02*
D03*
D29*
X66900Y388330D02*
D03*
X148900D02*
D03*
Y249430D02*
D03*
X66900D02*
D03*
D30*
X1074420Y733360D02*
D03*
X1061720D02*
D03*
X1049020D02*
D03*
X1036320D02*
D03*
Y683960D02*
D03*
X1049020D02*
D03*
X1061720D02*
D03*
X1074420D02*
D03*
D31*
X151520Y702030D02*
D03*
Y697030D02*
D03*
Y692030D02*
D03*
Y687030D02*
D03*
Y682030D02*
D03*
Y677030D02*
D03*
Y672030D02*
D03*
Y667030D02*
D03*
Y662030D02*
D03*
X120260D02*
D03*
Y667030D02*
D03*
Y672030D02*
D03*
Y677030D02*
D03*
Y682030D02*
D03*
Y687030D02*
D03*
Y692030D02*
D03*
Y697030D02*
D03*
Y702030D02*
D03*
Y707030D02*
D03*
X151520D02*
D03*
D32*
X143390Y661400D02*
D03*
X138390D02*
D03*
X133390D02*
D03*
X128390D02*
D03*
Y707660D02*
D03*
X133390D02*
D03*
X138390D02*
D03*
X143390D02*
D03*
D33*
X151700Y499810D02*
D03*
Y507810D02*
D03*
Y515810D02*
D03*
Y523810D02*
D03*
X127700D02*
D03*
Y515810D02*
D03*
Y507810D02*
D03*
Y499810D02*
D03*
D66*
X897890Y784860D02*
D03*
X993140Y220980D02*
D03*
X242570Y180340D02*
D03*
X48260Y542290D02*
D03*
X210820Y750570D02*
D03*
X260350Y309880D02*
D03*
X1449070Y789940D02*
D03*
X1447800Y17780D02*
D03*
X60960Y16510D02*
D03*
X59690Y789940D02*
D03*
D68*
X107950Y731520D02*
X113710Y737280D01*
Y749300D01*
X868680Y541950D02*
X870180D01*
X874275Y536902D02*
Y537855D01*
X876507Y534670D02*
X904240D01*
X870180Y541950D02*
X874275Y537855D01*
Y536902D02*
X876507Y534670D01*
X882650Y353060D02*
X882655Y353065D01*
X900425D01*
X900430Y353070D01*
X959780Y541020D02*
X960120Y540680D01*
X914400Y541020D02*
X959780D01*
X1386840Y772160D02*
X1398270D01*
X1399540Y770890D01*
X1379220Y764540D02*
X1386840Y772160D01*
X1379220Y623570D02*
Y764540D01*
X1366520Y610870D02*
X1379220Y623570D01*
X1156970Y610870D02*
X1366520D01*
X883920Y323850D02*
X884264D01*
X885044Y323070D01*
X880110Y393700D02*
X880353Y393457D01*
Y388721D02*
X886004Y383070D01*
X880353Y388721D02*
Y393457D01*
X886004Y383070D02*
X900430D01*
X885044Y323070D02*
X900430D01*
X885190Y293370D02*
X885340Y293220D01*
X900280D01*
X900430Y293070D01*
X236900Y583520D02*
X246380Y574040D01*
X68920Y583520D02*
X236900D01*
X233680Y297180D02*
X242570Y288290D01*
X257810D01*
X1037246Y448310D02*
X1041056Y452120D01*
X1041400D01*
X1026040Y448310D02*
X1037246D01*
X1026160Y468630D02*
X1038516D01*
X1042326Y472440D01*
X1042670D01*
X1011100Y468570D02*
X1011160Y468630D01*
X1009890Y467360D02*
X1011100Y468570D01*
X993140Y467360D02*
X1009890D01*
X1011100Y448370D02*
Y468570D01*
X1011040Y448310D02*
X1011100Y448370D01*
X993140Y220980D02*
Y467360D01*
X938530Y486410D02*
X974090D01*
X993140Y467360D01*
X184150Y495300D02*
Y511810D01*
X246380Y574040D01*
X1036320Y683960D02*
Y685230D01*
Y665480D02*
Y683960D01*
X929640Y477520D02*
X938530Y486410D01*
X929397Y477277D02*
X929640Y477520D01*
X363982Y760730D02*
X431800D01*
X269240D02*
X363982D01*
X151700Y523810D02*
X164056D01*
X937930Y383070D02*
X964056D01*
X964856Y382270D01*
X965200D01*
X937935Y353065D02*
X965195D01*
X965200Y353060D01*
X937930Y353070D02*
X937935Y353065D01*
X965636Y323070D02*
X966126Y322580D01*
X937930Y323070D02*
X965636D01*
X966126Y322580D02*
X966470D01*
X965050Y293220D02*
X965200Y293370D01*
X938080Y293220D02*
X965050D01*
X937930Y293070D02*
X938080Y293220D01*
X906775Y467355D02*
X916697Y477277D01*
X929397D01*
X900430Y433070D02*
X905680D01*
X906775Y434165D01*
Y467355D01*
X154270Y393700D02*
X181610D01*
X164056Y523810D02*
X168566Y528320D01*
X168910D01*
X144970Y499810D02*
X151700D01*
X136970Y507810D02*
X144970Y499810D01*
X935990Y767080D02*
X942340Y773430D01*
X935990Y752870D02*
Y767080D01*
X914400Y752870D02*
Y767080D01*
X920750Y773430D01*
X582930Y577850D02*
Y599560D01*
X570230Y565150D02*
X582930Y577850D01*
X491154Y590276D02*
X500126Y581304D01*
X489966Y605790D02*
X491154Y604602D01*
Y590276D02*
Y604602D01*
X500126Y580390D02*
Y581304D01*
X251460Y742950D02*
X269240Y760730D01*
X148590Y459740D02*
X184150Y495300D01*
X251460Y610870D02*
Y742950D01*
X431800Y760730D02*
X459740Y732790D01*
X378206Y580390D02*
Y595630D01*
X388366Y605790D01*
Y616966D02*
X392430Y621030D01*
X388366Y605790D02*
Y616966D01*
X392430Y621030D02*
X474726D01*
X489966Y605790D01*
X491045D02*
X499935Y614680D01*
X489966Y605790D02*
X491045D01*
X1050410Y610990D02*
X1056640Y617220D01*
X1027430Y610990D02*
X1050410D01*
X1027430Y625990D02*
Y647700D01*
X59690Y210820D02*
X72390D01*
X49650Y210860D02*
X49690Y210820D01*
Y221746D01*
X46990Y224446D02*
X49690Y221746D01*
X46990Y224446D02*
Y224790D01*
X81340Y237490D02*
X95250D01*
X163340D02*
X180340D01*
X151400Y249430D02*
X163340Y237490D01*
X65920Y668020D02*
X66040Y667900D01*
X87630D01*
X62230Y745610D02*
X89020D01*
X62230Y760610D02*
X73540D01*
X89020Y745610D02*
X92710Y749300D01*
X1199810Y652780D02*
X1203620Y656590D01*
X1156970Y610870D02*
X1164590Y618490D01*
Y660280D02*
X1183760D01*
X1191260Y652780D01*
X1199810D01*
X1164590Y618490D02*
Y645280D01*
X957580Y610930D02*
X1003240D01*
X1003300Y610990D01*
X1015365D01*
X1027430D01*
X1003300Y625990D02*
Y647700D01*
X1015365Y610990D02*
Y653415D01*
X1023620Y661670D01*
X1032510D01*
X1036320Y665480D01*
X1049020Y657860D02*
Y685230D01*
X1056640Y764674D02*
Y767080D01*
Y764674D02*
X1061720Y759594D01*
Y734630D02*
Y759594D01*
X1074420Y734630D02*
Y767080D01*
X1224620Y656590D02*
X1225890Y655320D01*
X1264920D01*
X257810Y288290D02*
X261620Y292100D01*
X260350Y309880D02*
X261620Y308610D01*
Y292100D02*
Y308610D01*
X40640Y749300D02*
X51950Y760610D01*
X40640Y659130D02*
Y749300D01*
X51950Y760610D02*
X62230D01*
X40640Y593090D02*
Y659130D01*
X73540Y760610D02*
X80010Y767080D01*
X40640Y659130D02*
X49530Y668020D01*
X40640Y593090D02*
X49870Y583860D01*
X80010Y767080D02*
X156210D01*
X162900Y760390D01*
Y749300D02*
X164170Y750570D01*
X162900D02*
Y760390D01*
X459740Y732790D02*
X511810D01*
X514350Y735330D01*
X499935Y614680D02*
X582810D01*
X582930Y614560D01*
X164170Y750570D02*
X210820D01*
X156495Y507715D02*
X161290Y502920D01*
Y491490D02*
Y502920D01*
X119623Y485383D02*
Y491733D01*
X127700Y499810D01*
X122260Y443230D02*
X144436D01*
X149516Y438150D01*
X149860D01*
X99060Y459740D02*
X148590D01*
X151700Y507810D02*
X151795Y507715D01*
X156495D01*
X127700Y507810D02*
X136970D01*
X144970Y515810D02*
X151700D01*
X136970Y507810D02*
X144970Y515810D01*
X87630Y642964D02*
Y652900D01*
Y642964D02*
X92710Y637884D01*
Y637540D02*
Y637884D01*
X834390Y610870D02*
X863600D01*
Y567045D02*
Y610870D01*
Y567045D02*
X867695Y562950D01*
X868680D01*
X863600Y610870D02*
X943610D01*
X943670Y610930D01*
X957580D01*
Y564220D02*
Y610930D01*
Y564220D02*
X960120Y561680D01*
X73594Y319630D02*
X88900D01*
X66900Y249430D02*
X69400D01*
X72390Y318770D02*
X72734D01*
X73594Y319630D01*
X69400Y249430D02*
X81340Y237490D01*
X66900Y388330D02*
X69400D01*
X66040Y485140D02*
Y501650D01*
X90170Y516650D02*
X99060Y507760D01*
X90170Y485140D02*
Y501650D01*
X99060Y459740D02*
Y507760D01*
X119380Y485140D02*
X119623Y485383D01*
X95260Y435730D02*
X101260Y441730D01*
Y443230D01*
X71120Y637540D02*
Y637884D01*
X66040Y642964D02*
Y652900D01*
Y642964D02*
X71120Y637884D01*
X49530Y668020D02*
X65920D01*
X148900Y249430D02*
X151400D01*
X69850Y341630D02*
X88900D01*
X148900Y388330D02*
X154270Y393700D01*
X127650Y507760D02*
X127700Y507810D01*
X66040Y516650D02*
X90170D01*
X99060Y507760D02*
X127650D01*
X52310Y516650D02*
X66040D01*
X48260Y520700D02*
X52310Y516650D01*
X46990Y541020D02*
X48260Y539750D01*
Y520700D02*
Y539750D01*
X46990Y541020D02*
Y543560D01*
X68580Y583860D02*
X68920Y583520D01*
X49870Y583860D02*
X68580D01*
X69400Y388330D02*
X80877Y399807D01*
X67310Y435730D02*
X95260D01*
X80877Y399807D02*
X88657D01*
X88900Y400050D01*
X67310Y450730D02*
X76320Y459740D01*
X99060D01*
D69*
X527335Y350235D02*
Y399620D01*
X523525Y348657D02*
X749300Y122882D01*
X523525Y348657D02*
Y399620D01*
X527335D02*
Y428917D01*
X749300Y43180D02*
Y122882D01*
X527335Y350235D02*
X753110Y124460D01*
Y41602D02*
Y124460D01*
X534905Y126073D02*
Y249647D01*
X467741Y316811D02*
X534905Y249647D01*
X471551Y318389D02*
X538715Y251225D01*
Y126073D02*
Y251225D01*
X897763Y313070D02*
X900430D01*
X872363Y314499D02*
X876982Y309880D01*
X891990D01*
X895180Y313070D01*
X897763D01*
X866823Y320040D02*
X872363Y314499D01*
X876173Y340360D02*
X892470D01*
X892683Y340573D01*
X872363Y344170D02*
X876173Y340360D01*
X892085Y369975D02*
X895180Y373070D01*
X871011Y369975D02*
X890061D01*
X892085D01*
X788670D02*
X871011D01*
X662495Y59690D02*
X670810Y68005D01*
Y92710D01*
X453390Y109220D02*
Y227330D01*
X500380Y62230D02*
X629612D01*
X453390Y109220D02*
X500380Y62230D01*
X445770Y109220D02*
X496570Y58420D01*
X631190D01*
X445770Y109220D02*
Y226060D01*
X439420Y106680D02*
Y222250D01*
Y106680D02*
X491490Y54610D01*
X650810Y71690D02*
Y92710D01*
X633730Y54610D02*
X650810Y71690D01*
X491490Y54610D02*
X633730D01*
X654810Y69340D02*
Y92710D01*
X486410Y50800D02*
X636270D01*
X433070Y104140D02*
Y219710D01*
X636270Y50800D02*
X654810Y69340D01*
X433070Y104140D02*
X486410Y50800D01*
X642810Y70040D02*
Y92710D01*
X638810Y71428D02*
Y92710D01*
X629612Y62230D02*
X638810Y71428D01*
X631190Y58420D02*
X642810Y70040D01*
X627831Y104140D02*
X634794Y97177D01*
X614680Y104140D02*
X627831D01*
X634794Y92726D02*
Y97177D01*
Y92726D02*
X634810Y92710D01*
X628650Y69850D02*
Y85090D01*
X630810Y87250D02*
Y92710D01*
X628650Y85090D02*
X630810Y87250D01*
X662940Y77470D02*
Y83253D01*
X658826Y87367D02*
X662940Y83253D01*
X658826Y87367D02*
Y92694D01*
X658810Y92710D02*
X658826Y92694D01*
X619760Y80835D02*
X622810Y83885D01*
Y92710D01*
X619760Y80010D02*
Y80835D01*
X647335Y473037D02*
X783590Y609292D01*
X785766Y712115D02*
Y713345D01*
X779780Y610870D02*
Y709069D01*
X643525Y474615D02*
X779780Y610870D01*
X783590Y709939D02*
X785766Y712115D01*
Y713345D02*
Y722066D01*
X776734Y712115D02*
X779780Y709069D01*
X783590Y609292D02*
Y709939D01*
X776734Y712115D02*
Y722066D01*
X673029Y116840D02*
X680720D01*
X670810Y119059D02*
Y123510D01*
Y119059D02*
X673029Y116840D01*
X680720D02*
X682794Y118914D01*
X711430Y462280D02*
Y473940D01*
X728980Y491490D02*
X744220D01*
X711430Y473940D02*
X728980Y491490D01*
X687446Y466747D02*
X694690Y473991D01*
Y486410D01*
X687430Y462280D02*
X687446Y462296D01*
Y466747D01*
X699430Y468290D02*
X707390Y476250D01*
X699430Y462280D02*
Y468290D01*
X707390Y476250D02*
Y486410D01*
X675430Y462280D02*
Y469690D01*
X681990Y476250D01*
X663430Y455440D02*
X668020Y450850D01*
X663430Y455440D02*
Y462280D01*
X895180Y373070D02*
X900430D01*
X678810Y59060D02*
Y92710D01*
X682810Y70300D02*
Y92710D01*
X678810Y59060D02*
X681990Y55880D01*
X792480Y340360D02*
X870785D01*
X874595Y336550D02*
X891700D01*
X870785Y340360D02*
X874595Y336550D01*
X792480Y344170D02*
X872363D01*
X892683Y340573D02*
X895180Y343070D01*
X891700Y336550D02*
X895180Y333070D01*
Y343070D02*
X900430D01*
X686810Y76460D02*
Y92710D01*
X700457Y60273D02*
Y62813D01*
Y60273D02*
X701040Y59690D01*
X686810Y76460D02*
X700457Y62813D01*
X682810Y70300D02*
X687070Y66040D01*
X678810Y163635D02*
X679450Y164275D01*
X678810Y123510D02*
Y163635D01*
X679450Y164275D02*
Y165100D01*
X643525Y464843D02*
Y474615D01*
X643430Y462280D02*
Y464748D01*
X643525Y464843D01*
X647430Y462280D02*
Y464748D01*
X647335Y464843D02*
X647430Y464748D01*
X647335Y464843D02*
Y473037D01*
X785766Y722066D02*
X786250Y722550D01*
X776250D02*
X776734Y722066D01*
X546810Y92710D02*
Y107685D01*
X543560Y110935D02*
Y111760D01*
Y110935D02*
X546810Y107685D01*
X544385Y449580D02*
X545669Y448296D01*
X543560Y449580D02*
X544385D01*
X545669Y448296D02*
X546114D01*
X555430Y438980D01*
Y431480D02*
Y438980D01*
X431800Y560070D02*
Y563880D01*
Y538480D02*
Y539750D01*
Y560070D01*
Y307340D02*
Y538480D01*
X425900Y605790D02*
X429006D01*
X448310Y548640D02*
Y558317D01*
Y537210D02*
Y548640D01*
Y534670D02*
Y537210D01*
Y306070D02*
Y534670D01*
X789940Y316230D02*
X865244D01*
X872793Y308681D01*
X775970Y320040D02*
X866823D01*
X872793Y308681D02*
X875404Y306070D01*
X892180D01*
X593090Y320040D02*
X773430D01*
X591512Y316230D02*
X773430D01*
X547525Y360217D02*
X591512Y316230D01*
X551335Y361795D02*
X593090Y320040D01*
X822960Y7620D02*
X881380D01*
X897890Y24130D01*
X140505Y120015D02*
X167005D01*
X523525Y425958D02*
Y428917D01*
Y399620D02*
Y425958D01*
X523430Y429012D02*
Y431480D01*
Y429012D02*
X523525Y428917D01*
X725170Y19050D02*
X749300Y43180D01*
X180340Y30480D02*
X191770Y19050D01*
X725170D01*
X168583Y123825D02*
X180340Y112068D01*
Y30480D02*
Y112068D01*
X527335Y428917D02*
X527430Y429012D01*
Y431480D01*
X726748Y15240D02*
X753110Y41602D01*
X190192Y15240D02*
X726748D01*
X167005Y120015D02*
X176530Y110490D01*
Y28902D02*
Y110490D01*
Y28902D02*
X190192Y15240D01*
X132410Y111920D02*
X140505Y120015D01*
Y123825D02*
X168583D01*
X132410Y131920D02*
X140505Y123825D01*
X669290Y140970D02*
Y165100D01*
X630810Y123510D02*
Y144335D01*
X627380Y147765D02*
X630810Y144335D01*
X627380Y147765D02*
Y148590D01*
X611356Y155426D02*
X626810Y139972D01*
Y123510D02*
Y139972D01*
X590810Y92710D02*
Y101860D01*
X600710Y111760D01*
X632460Y109220D02*
Y110045D01*
X634810Y112395D01*
Y123510D01*
X564642Y222758D02*
X638810Y148590D01*
Y123510D02*
Y148590D01*
X646794Y92726D02*
Y103268D01*
X646430Y103632D02*
X646794Y103268D01*
Y92726D02*
X646810Y92710D01*
X682794Y118914D02*
Y123494D01*
X618794Y123526D02*
Y134316D01*
X608330Y144780D02*
X618794Y134316D01*
Y123526D02*
X618810Y123510D01*
X669290Y140970D02*
X674810Y135450D01*
X694107Y135258D02*
Y136577D01*
X694690Y137160D01*
X686826Y127977D02*
X694107Y135258D01*
X674810Y123510D02*
Y135450D01*
X564642Y222758D02*
Y250190D01*
X858520Y405130D02*
X859028Y405638D01*
X864108D01*
X725170Y35560D02*
Y66040D01*
X713740Y77470D02*
X725170Y66040D01*
X818220Y24130D02*
X839470D01*
X852170Y36830D01*
X859345Y64770D02*
X928370D01*
X857250Y66040D02*
X858075D01*
X859345Y64770D01*
X897890Y24130D02*
X928370D01*
X738155Y644852D02*
Y709504D01*
X611335Y464843D02*
Y518032D01*
X738155Y644852D01*
X611335Y464843D02*
X611430Y464748D01*
Y462280D02*
Y464748D01*
X740766Y722066D02*
X741250Y722550D01*
X740766Y712115D02*
Y722066D01*
X738155Y709504D02*
X740766Y712115D01*
X607525Y464843D02*
Y519610D01*
X734345Y646430D01*
X607430Y464748D02*
X607525Y464843D01*
X607430Y462280D02*
Y464748D01*
X731250Y722550D02*
X731734Y722066D01*
Y712115D02*
Y722066D01*
X734345Y646430D02*
Y709504D01*
X731734Y712115D02*
X734345Y709504D01*
X619525Y464843D02*
Y504876D01*
X753155Y633117D02*
Y702310D01*
X623335Y503298D02*
X753155Y633117D01*
X623335Y464843D02*
Y503298D01*
X619525Y504876D02*
X749345Y634696D01*
X635335Y489172D02*
X768155Y621992D01*
X631525Y490750D02*
X764345Y623570D01*
X635335Y464843D02*
Y489172D01*
X631525Y464843D02*
Y490750D01*
X749345Y701040D02*
Y702310D01*
Y634696D02*
Y695960D01*
Y707390D02*
Y709504D01*
X619430Y464748D02*
X619525Y464843D01*
X619430Y462280D02*
Y464748D01*
X746734Y712115D02*
Y722066D01*
Y712115D02*
X749345Y709504D01*
X746250Y722550D02*
X746734Y722066D01*
X749345Y695960D02*
Y701040D01*
X753155Y702310D02*
Y707390D01*
X749345Y702310D02*
Y707390D01*
X753155D02*
Y709504D01*
X623430Y462280D02*
Y464748D01*
X623335Y464843D02*
X623430Y464748D01*
X755766Y722066D02*
X756250Y722550D01*
X753155Y709504D02*
X755766Y712115D01*
Y722066D01*
X570230Y541020D02*
X637540Y608330D01*
X605207Y449941D02*
Y450765D01*
X603430Y452542D02*
Y462280D01*
Y452542D02*
X605207Y450765D01*
X576580Y489395D02*
X591430Y474545D01*
Y462280D02*
Y474545D01*
X732790Y66040D02*
X734060D01*
X714810Y84020D02*
X732790Y66040D01*
X714810Y84020D02*
Y92710D01*
X707390Y77470D02*
X713740D01*
X702810Y82050D02*
X707390Y77470D01*
X702810Y82050D02*
Y92710D01*
X796190Y23100D02*
Y26660D01*
X767080Y35680D02*
X787170D01*
X796190Y26660D01*
X765810Y51950D02*
Y76645D01*
Y51950D02*
X767080Y50680D01*
X682794Y123494D02*
X682810Y123510D01*
X763270Y79185D02*
Y80010D01*
Y79185D02*
X765810Y76645D01*
X735330Y80010D02*
Y128270D01*
X730250Y133350D02*
X735330Y128270D01*
X717550Y133350D02*
X730250D01*
X714810Y130610D02*
X717550Y133350D01*
X714810Y123510D02*
Y130610D01*
X713740Y114300D02*
X722122D01*
X710810Y117230D02*
X713740Y114300D01*
X710810Y117230D02*
Y123510D01*
X722122Y114300D02*
X722630Y114808D01*
X787400Y366165D02*
X788670D01*
X787400Y369975D02*
X788670D01*
Y366165D02*
X797560D01*
X602845D02*
X787400D01*
X604423Y369975D02*
X787400D01*
X782320Y340360D02*
X792480D01*
X782320Y344170D02*
X792480D01*
X597317Y340360D02*
X782320D01*
X598895Y344170D02*
X782320D01*
X778510Y316230D02*
X789940D01*
X775970D02*
X778510D01*
X773430D02*
X775970D01*
X773430Y320040D02*
X775970D01*
X441960Y564667D02*
X448310Y558317D01*
X797560Y366165D02*
X830580D01*
X892085D01*
X892180Y306070D02*
X895180Y303070D01*
X900430D01*
X551335Y361795D02*
Y428917D01*
X504381Y448997D02*
X519430Y433948D01*
X503942Y448997D02*
X504381D01*
X579430Y431480D02*
Y445905D01*
X576580Y448755D02*
Y449580D01*
Y448755D02*
X579430Y445905D01*
X519430Y431480D02*
Y433948D01*
X516890Y449580D02*
X517473Y448997D01*
X531414Y431496D02*
X531430Y431480D01*
X531414Y431496D02*
Y435947D01*
X518364Y448997D02*
X531414Y435947D01*
X517473Y448997D02*
X518364D01*
X529781Y449580D02*
X543414Y435947D01*
X529590Y449580D02*
X529781D01*
X543414Y431496D02*
Y435947D01*
X560070Y449580D02*
X567430Y442220D01*
Y431480D02*
Y442220D01*
X591430Y415680D02*
X595630Y411480D01*
X591430Y415680D02*
Y431480D01*
X622046Y397764D02*
X768604D01*
X624840Y402590D02*
X764540D01*
X611430Y416000D02*
Y431480D01*
X603430Y416380D02*
X622046Y397764D01*
X611430Y416000D02*
X624840Y402590D01*
X603430Y416380D02*
Y431480D01*
X768604Y397764D02*
X821690Y450850D01*
X764540Y402590D02*
X815340Y453390D01*
X615446Y418642D02*
X626418Y407670D01*
X760730D02*
X793750Y440690D01*
X626418Y407670D02*
X760730D01*
X627430Y418605D02*
X628650Y417385D01*
X627430Y418605D02*
Y431480D01*
X628650Y416560D02*
Y417385D01*
X764345Y623570D02*
Y709504D01*
X768155Y621992D02*
Y709504D01*
X427990Y305762D02*
Y565458D01*
X542810Y123510D02*
Y127961D01*
X548640Y133791D01*
Y149860D02*
X554990Y156210D01*
X548640Y133791D02*
Y149860D01*
X502920Y104140D02*
X521219D01*
X526794Y98566D01*
X501342Y100330D02*
X519641D01*
X522794Y92726D02*
Y97177D01*
X526794Y92726D02*
Y98566D01*
Y92726D02*
X526810Y92710D01*
X519641Y100330D02*
X522794Y97177D01*
Y92726D02*
X522810Y92710D01*
X473710Y127962D02*
X501342Y100330D01*
X477520Y129540D02*
X502920Y104140D01*
X452120Y307648D02*
Y537210D01*
X471551Y318389D02*
Y572135D01*
X534810Y123510D02*
Y125978D01*
X534905Y126073D01*
X538810Y123510D02*
Y125978D01*
X538715Y126073D02*
X538810Y125978D01*
X530810Y123510D02*
X530826Y123494D01*
X510232Y110490D02*
X525481D01*
X532653Y117216D02*
X562234D01*
X530826Y119043D02*
X532653Y117216D01*
X497840Y128270D02*
X511810Y114300D01*
X530826Y119043D02*
Y123494D01*
X530794D02*
X530810Y123510D01*
X527060Y114300D02*
X538715Y102645D01*
X511810Y114300D02*
X527060D01*
X525481Y110490D02*
X534905Y101066D01*
X494030Y126692D02*
X510232Y110490D01*
X467741Y316811D02*
Y572135D01*
X459486Y580390D02*
X467741Y572135D01*
X471551D02*
X479806Y580390D01*
X431800Y569268D02*
Y585783D01*
X427990Y565458D02*
X431800Y569268D01*
X411792Y605790D02*
X431800Y585783D01*
X427990Y305762D02*
X494030Y239722D01*
Y126692D02*
Y239722D01*
X534810Y95178D02*
X534905Y95273D01*
Y101066D01*
X534810Y92710D02*
Y95178D01*
X408686Y605790D02*
X411792D01*
X431800Y563880D02*
X435610Y567690D01*
Y587361D01*
X426658Y596312D02*
X435610Y587361D01*
X431800Y307340D02*
X497840Y241300D01*
Y128270D02*
Y241300D01*
X538715Y95273D02*
Y102645D01*
X538810Y92710D02*
Y95178D01*
X538715Y95273D02*
X538810Y95178D01*
X425900Y605790D02*
X426658Y605031D01*
Y596312D02*
Y605031D01*
X571525Y397485D02*
X602845Y366165D01*
X571525Y397485D02*
Y409734D01*
X892085Y366165D02*
X895180Y363070D01*
X900430D01*
X571430Y429012D02*
Y431480D01*
Y429012D02*
X571525Y428917D01*
Y409734D02*
X571525Y409734D01*
X571525Y409734D02*
Y428917D01*
X575430Y429012D02*
Y431480D01*
X575335Y428917D02*
X575430Y429012D01*
X575335Y411312D02*
X575335Y411312D01*
X575335Y411312D02*
Y428917D01*
X575335Y399063D02*
Y411312D01*
Y399063D02*
X604423Y369975D01*
X441960Y564667D02*
Y586241D01*
X522905Y126073D02*
Y231475D01*
X452120Y307648D02*
X526715Y233053D01*
Y126073D02*
Y233053D01*
X448310Y306070D02*
X522905Y231475D01*
X449326Y605790D02*
X452075D01*
X451853Y605568D02*
X452075Y605790D01*
X451853Y598173D02*
Y605568D01*
Y598173D02*
X452031Y597996D01*
Y596312D02*
Y597996D01*
X441960Y586241D02*
X452031Y596312D01*
X466897Y605790D02*
X469646D01*
X445770Y584663D02*
X466897Y605790D01*
X445770Y566245D02*
Y584663D01*
X452120Y537210D02*
Y559895D01*
X445770Y566245D02*
X452120Y559895D01*
X526810Y123510D02*
Y125978D01*
X522810Y123510D02*
Y125978D01*
X526715Y126073D02*
X526810Y125978D01*
X522810D02*
X522905Y126073D01*
X252730Y408940D02*
X439420Y222250D01*
X410591Y299339D02*
X477520Y232410D01*
X261620Y419100D02*
X453390Y227330D01*
X473710Y127962D02*
Y230832D01*
X406781Y297761D02*
X473710Y230832D01*
X257810Y414020D02*
X445770Y226060D01*
X248920Y403860D02*
X433070Y219710D01*
X477520Y129540D02*
Y232410D01*
X553720Y104585D02*
Y105410D01*
X550810Y101675D02*
X553720Y104585D01*
X550810Y92710D02*
Y101675D01*
X509957Y147249D02*
Y149277D01*
X510540Y149860D01*
X509853Y147146D02*
X509957Y147249D01*
X406781Y297761D02*
Y572135D01*
X398526Y580390D02*
X406781Y572135D01*
X518810Y81455D02*
X519430Y80835D01*
Y80010D02*
Y80835D01*
X518810Y81455D02*
Y92710D01*
X410591Y572135D02*
X418846Y580390D01*
X410591Y299339D02*
Y572135D01*
X509853Y132687D02*
X516546Y125994D01*
X509853Y132687D02*
Y147146D01*
X547525Y360217D02*
Y428917D01*
X563335Y379730D02*
X598895Y344170D01*
X563335Y379730D02*
Y426869D01*
X559525Y378152D02*
Y426869D01*
Y378152D02*
X597317Y340360D01*
X806450Y516890D02*
Y722350D01*
X796290Y522144D02*
Y698500D01*
X791210Y703580D02*
X796290Y698500D01*
X635430Y462280D02*
Y464748D01*
X635335Y464843D02*
X635430Y464748D01*
X631430Y462280D02*
Y464748D01*
X631525Y464843D01*
X770766Y722066D02*
X771250Y722550D01*
X770766Y712115D02*
Y722066D01*
X768155Y709504D02*
X770766Y712115D01*
X761250Y722550D02*
X761734Y722066D01*
Y712115D02*
Y722066D01*
Y712115D02*
X764345Y709504D01*
X547430Y429012D02*
X547525Y428917D01*
X547430Y429012D02*
Y431480D01*
X551430Y429012D02*
Y431480D01*
X551335Y428917D02*
X551430Y429012D01*
X918210Y134620D02*
Y391160D01*
X916300Y393070D02*
X918210Y391160D01*
X887730Y104140D02*
X918210Y134620D01*
X895180Y333070D02*
X900430D01*
X563335Y426869D02*
X563430Y426964D01*
Y431480D01*
X559430Y426964D02*
X559525Y426869D01*
X559430Y426964D02*
Y431480D01*
X711430Y421410D02*
X717550Y415290D01*
X711430Y421410D02*
Y431480D01*
X543414Y431496D02*
X543430Y431480D01*
Y462280D02*
X543446Y462296D01*
Y476136D01*
X543560Y476250D01*
X651430Y462280D02*
X651446Y462264D01*
Y457739D02*
Y462264D01*
X558800Y492760D02*
X567430Y484130D01*
Y462280D02*
Y484130D01*
X577925Y471135D02*
Y475667D01*
X577342Y476250D02*
X577925Y475667D01*
X703580Y66040D02*
X709930D01*
X690810Y78810D02*
X703580Y66040D01*
X674794Y62209D02*
Y92694D01*
X671830Y59245D02*
X674794Y62209D01*
X671830Y58420D02*
Y59245D01*
X661670Y59690D02*
X662495D01*
X562234Y117216D02*
X571500Y107950D01*
X558805Y123515D02*
Y135885D01*
X578810Y123510D02*
Y133485D01*
X580390Y135065D01*
Y135890D01*
X558800D02*
X558805Y135885D01*
X518810Y123510D02*
Y125978D01*
X516546Y125994D02*
X518794D01*
X518810Y125978D01*
X602826Y80434D02*
X603038Y80222D01*
X602826Y80434D02*
Y92694D01*
X686826Y123526D02*
Y127977D01*
X637540Y608330D02*
Y647700D01*
X793750Y519604D02*
X796290Y522144D01*
X793750Y519430D02*
Y519604D01*
X617220Y449580D02*
Y450405D01*
X615430Y452195D02*
X617220Y450405D01*
X615430Y452195D02*
Y462280D01*
X627430Y452895D02*
X629920Y450405D01*
X627430Y452895D02*
Y462280D01*
X629920Y449580D02*
Y450405D01*
X639430Y453595D02*
Y462280D01*
X642620Y449580D02*
Y450405D01*
X639430Y453595D02*
X642620Y450405D01*
X651446Y457739D02*
X654017Y455168D01*
Y449613D02*
Y455168D01*
Y449613D02*
X654050Y449580D01*
X793750Y440690D02*
Y490220D01*
X815340Y453390D02*
Y520392D01*
X821690Y450850D02*
Y518160D01*
X675430Y417024D02*
X679450Y413004D01*
X643890D02*
Y413424D01*
X690880Y413004D02*
Y413575D01*
X675430Y417024D02*
Y431480D01*
X639430Y417883D02*
Y431480D01*
X651430Y417148D02*
Y431480D01*
X702310Y413004D02*
Y413575D01*
X651430Y417148D02*
X655189Y413389D01*
X666750Y413004D02*
Y413575D01*
X655189Y413004D02*
Y413389D01*
X639430Y417883D02*
X643890Y413424D01*
X615446Y418642D02*
Y431464D01*
X1003300Y560070D02*
X1042670D01*
X1046480Y556260D01*
X1062990Y354330D02*
Y555070D01*
X1046480Y556260D02*
X1061800D01*
X1062990Y555070D01*
X1038860Y330200D02*
X1062990Y354330D01*
X1038860Y135890D02*
Y330200D01*
X1042670Y514350D02*
Y539070D01*
X1029970Y501650D02*
X1042670Y514350D01*
X1003300Y518160D02*
Y539070D01*
X995680Y510540D02*
X1003300Y518160D01*
X686810Y123510D02*
X686826Y123526D01*
X772668Y104140D02*
X887730D01*
X772160Y103632D02*
X772668Y104140D01*
X868680Y473710D02*
X896620Y501650D01*
X869950Y416560D02*
X876460Y423070D01*
X877410D01*
X868045Y409575D02*
X892006D01*
X850900Y468630D02*
X892810Y510540D01*
X868680Y431800D02*
X877410Y423070D01*
X850900Y426720D02*
Y468630D01*
Y426720D02*
X868045Y409575D01*
X864108Y405638D02*
X868045Y409575D01*
X868680Y431800D02*
Y473710D01*
X895180Y413070D02*
X900430D01*
X892006Y409575D02*
X893196Y410765D01*
Y411086D01*
X895180Y413070D01*
X896620Y501650D02*
X1029970D01*
X877410Y423070D02*
X900430D01*
X892810Y510540D02*
X995680D01*
X900430Y393070D02*
X916300D01*
X576580Y489395D02*
Y496570D01*
X1012190Y109220D02*
X1038860Y135890D01*
X918210Y109220D02*
X1012190D01*
X720777Y104215D02*
X721360Y103632D01*
X713815Y104215D02*
X720777D01*
X710810Y101210D02*
X713815Y104215D01*
X608620Y440690D02*
X730250D01*
X806450Y516890D01*
X607430Y431480D02*
Y439500D01*
X608620Y440690D01*
X815340Y520392D02*
X827278Y532330D01*
X699430Y416455D02*
Y431480D01*
Y416455D02*
X702310Y413575D01*
X615430Y431480D02*
X615446Y431464D01*
X577925Y471135D02*
X579414Y469646D01*
X570230Y513080D02*
Y541020D01*
X579414Y462296D02*
Y469646D01*
X766250Y722550D02*
Y740415D01*
X764540Y742125D02*
X766250Y740415D01*
X764540Y742125D02*
Y742950D01*
X160020Y624840D02*
X172720D01*
X119380Y419100D02*
X261620D01*
X827278Y532330D02*
Y748715D01*
X803910Y756920D02*
X819073D01*
X827278Y748715D01*
X528320Y746760D02*
X610870D01*
X514350Y760730D02*
X528320Y746760D01*
X530826Y80044D02*
Y92694D01*
Y80044D02*
X530860Y80010D01*
X582826Y80114D02*
Y92694D01*
X582810Y92710D02*
X582826Y92694D01*
Y80114D02*
X582930Y80010D01*
X602810Y92710D02*
X602826Y92694D01*
X78316Y378036D02*
X119380Y419100D01*
X124460Y408940D02*
X252730D01*
X121920Y414020D02*
X257810D01*
X127000Y403860D02*
X248920D01*
X791210Y703580D02*
Y722510D01*
X791250Y722550D01*
X806250D02*
X806450Y722350D01*
X810260Y742950D02*
X810766Y742444D01*
Y723034D02*
Y742444D01*
X821470Y536160D02*
Y722330D01*
Y536160D02*
X821690Y535940D01*
X821250Y722550D02*
X821470Y722330D01*
X801250Y754260D02*
X803910Y756920D01*
X801250Y722550D02*
Y754260D01*
X810766Y723034D02*
X811250Y722550D01*
X734060Y742125D02*
Y742950D01*
X736250Y722550D02*
Y739935D01*
X734060Y742125D02*
X736250Y739935D01*
X750910Y722890D02*
Y742610D01*
Y722890D02*
X751250Y722550D01*
X750570Y742950D02*
X750910Y742610D01*
X779780Y742125D02*
Y742950D01*
X781250Y722550D02*
Y740655D01*
X779780Y742125D02*
X781250Y740655D01*
X710810Y92710D02*
Y101210D01*
X598810Y134435D02*
X599440Y135065D01*
Y135890D01*
X598810Y123510D02*
Y134435D01*
X1041170Y539070D02*
X1042670D01*
X102870Y661670D02*
X108230Y667030D01*
X120260D01*
X530810Y92710D02*
X530826Y92694D01*
X542290Y80010D02*
X542794Y80514D01*
Y92694D01*
X542810Y92710D01*
X562794Y92694D02*
X562810Y92710D01*
X562610Y80010D02*
X562794Y80194D01*
Y92694D01*
X558805Y123515D02*
X558810Y123510D01*
X120260Y687030D02*
X130836D01*
X140996Y697190D01*
X138556Y703454D02*
Y707494D01*
Y703454D02*
X138840Y703170D01*
Y703170D02*
Y703170D01*
X138390Y707660D02*
X138556Y707494D01*
X138840Y703170D02*
X140996Y701014D01*
X62230Y719970D02*
X92830D01*
X62230Y693420D02*
Y704970D01*
X87630Y667900D02*
X96400D01*
X62230Y693420D02*
X68580Y687070D01*
X120220D02*
X120260Y687030D01*
X151520Y692030D02*
X160887D01*
X143390Y641470D02*
Y661400D01*
X124460Y723857D02*
Y723900D01*
Y723857D02*
X128390Y719927D01*
Y707660D02*
Y719927D01*
X133390Y707660D02*
Y725210D01*
X140970Y732790D01*
X108070Y692030D02*
X120260D01*
X92830Y719970D02*
X95250Y717550D01*
Y704850D02*
Y717550D01*
Y704850D02*
X108070Y692030D01*
X104140Y712470D02*
X109580Y707030D01*
X120260D01*
X110530Y682030D02*
X120260D01*
X96400Y667900D02*
X110530Y682030D01*
X113030Y687070D02*
X120220D01*
X110530Y684570D02*
X113030Y687070D01*
X110530Y682030D02*
Y684570D01*
X143390Y707660D02*
Y714607D01*
X152541Y723759D01*
X145836Y702030D02*
X151520D01*
X140996Y697190D02*
X145836Y702030D01*
X140996Y697190D02*
Y701014D01*
X140970Y749640D02*
X141900Y750570D01*
X140970Y732790D02*
Y749640D01*
X133390Y636230D02*
X139700Y629920D01*
X128270Y648970D02*
Y661280D01*
X128390Y661400D01*
X133390Y636230D02*
Y661400D01*
X579414Y462296D02*
X579430Y462280D01*
X554990Y476250D02*
X555414Y475826D01*
X531430Y462280D02*
Y474725D01*
X532130Y475425D01*
Y476250D01*
X555414Y462296D02*
Y475826D01*
Y462296D02*
X555430Y462280D01*
X663430Y416895D02*
Y431480D01*
Y416895D02*
X666750Y413575D01*
X687430Y417025D02*
Y431480D01*
Y417025D02*
X690880Y413575D01*
X160887Y692030D02*
X164577Y688340D01*
X165100D01*
X646430Y135890D02*
X646794Y135526D01*
Y123526D02*
Y135526D01*
Y123526D02*
X646810Y123510D01*
X674794Y92694D02*
X674810Y92710D01*
X690810Y78810D02*
Y92710D01*
X662810Y123510D02*
X662826Y123526D01*
Y135776D01*
X662940Y135890D01*
X118135Y662030D02*
X120260D01*
X143390Y641470D02*
X160020Y624840D01*
X99060Y604520D02*
Y619760D01*
X91440Y622300D02*
X117901Y648761D01*
X99060Y619760D02*
X128270Y648970D01*
X117901Y648761D02*
Y661796D01*
X118135Y662030D01*
X622300Y662940D02*
Y677840D01*
Y662940D02*
X637540Y647700D01*
X821690Y535940D02*
X821985Y536235D01*
X610870Y746760D02*
X622300Y735330D01*
Y698840D02*
Y735330D01*
X88900Y308630D02*
X89061Y308469D01*
X88900Y286630D02*
X91884Y289614D01*
X89061Y308469D02*
X101459D01*
X73660Y353060D02*
X88470D01*
X88900Y352630D01*
X59690Y304800D02*
Y373380D01*
X64346Y378036D01*
X59690Y304800D02*
X66860Y297630D01*
X69850Y356870D02*
Y368300D01*
Y356870D02*
X73660Y353060D01*
X64346Y378036D02*
X78316D01*
X69850Y368300D02*
X73660Y372110D01*
X80010D01*
X121920Y414020D01*
X88900Y373380D02*
X124460Y408940D01*
X109220Y386080D02*
X127000Y403860D01*
X72390Y622300D02*
X91440D01*
X91884Y289614D02*
X105464D01*
X109220Y293370D01*
X66860Y297630D02*
X88900D01*
Y363630D02*
Y373380D01*
X109220Y293370D02*
Y386080D01*
X68580Y618490D02*
X72390Y622300D01*
X68580Y604860D02*
Y618490D01*
D70*
X1323340Y666440D02*
D03*
Y726440D02*
D03*
D71*
X1276340Y696440D02*
D03*
D72*
X1056640Y25400D02*
D03*
X1082040D02*
D03*
X1107440D02*
D03*
X928370Y64770D02*
D03*
X953770D02*
D03*
X928370Y24130D02*
D03*
X953770D02*
D03*
X489966Y605790D02*
D03*
X500126Y580390D02*
D03*
X378206D02*
D03*
X418846D02*
D03*
X398526D02*
D03*
X429006Y605790D02*
D03*
X408686D02*
D03*
X469646D02*
D03*
X449326D02*
D03*
X479806Y580390D02*
D03*
X459486D02*
D03*
X242570Y110490D02*
D03*
Y135890D02*
D03*
X1399540Y652780D02*
D03*
Y678180D02*
D03*
Y703580D02*
D03*
Y770890D02*
D03*
Y745490D02*
D03*
X1093470Y590550D02*
D03*
X1118870D02*
D03*
X246380Y574040D02*
D03*
Y548640D02*
D03*
D73*
X1132840Y25400D02*
D03*
X388366Y605790D02*
D03*
D74*
X390906Y671830D02*
D03*
X487426D02*
D03*
D75*
X363982Y735330D02*
D03*
Y760730D02*
D03*
X514350Y709930D02*
D03*
Y735330D02*
D03*
Y760730D02*
D03*
D76*
X351282Y671830D02*
D03*
X527050D02*
D03*
D77*
X851250Y731550D02*
D03*
X706250D02*
D03*
X857250Y781050D02*
D03*
X700250D02*
D03*
D78*
X1228090Y739140D02*
D03*
X1177290D02*
D03*
D79*
X132410Y111920D02*
D03*
Y131920D02*
D03*
Y86920D02*
D03*
D80*
X1399540Y627380D02*
D03*
D81*
X105310Y56220D02*
D03*
Y187620D02*
D03*
D82*
X132410Y156920D02*
D03*
D83*
X866140Y78740D02*
D03*
X842010Y15240D02*
D03*
X711200Y34290D02*
D03*
X107950Y731520D02*
D03*
X203200Y233680D02*
D03*
X552450Y260350D02*
D03*
X372110Y232410D02*
D03*
X654050Y165100D02*
D03*
X849630Y414020D02*
D03*
X786130Y78740D02*
D03*
X783590Y118110D02*
D03*
X614680Y104140D02*
D03*
X662940Y77470D02*
D03*
X619760Y80010D02*
D03*
X694690Y486410D02*
D03*
X707390D02*
D03*
X681990Y476250D02*
D03*
X668020Y450850D02*
D03*
X882650Y353060D02*
D03*
X543560Y111760D02*
D03*
X822960Y7620D02*
D03*
X979170Y627380D02*
D03*
X970280Y618490D02*
D03*
X669290Y165100D02*
D03*
X679450D02*
D03*
X627380Y148590D02*
D03*
X611356Y155426D02*
D03*
X632460Y109220D02*
D03*
X646430Y103632D02*
D03*
X600710Y111760D02*
D03*
X608330Y144780D02*
D03*
X694690Y137160D02*
D03*
X858520Y405130D02*
D03*
X883920Y323850D02*
D03*
X725170Y35560D02*
D03*
X852170Y36830D02*
D03*
X605207Y449941D02*
D03*
X857250Y66040D02*
D03*
X734060D02*
D03*
X763270Y80010D02*
D03*
X735330D02*
D03*
X880110Y393700D02*
D03*
X503942Y448997D02*
D03*
X576580Y449580D02*
D03*
X516890D02*
D03*
X529590D02*
D03*
X543560D02*
D03*
X560070D02*
D03*
X595630Y411480D02*
D03*
X628650Y416560D02*
D03*
X554990Y156210D02*
D03*
X510540Y149860D02*
D03*
X519430Y80010D02*
D03*
X388620Y228600D02*
D03*
X885190Y293370D02*
D03*
X717550Y415290D02*
D03*
X543560Y476250D02*
D03*
X628650Y69850D02*
D03*
X558800Y492760D02*
D03*
X577342Y476250D02*
D03*
X701040Y59690D02*
D03*
X709930Y66040D02*
D03*
X687070D02*
D03*
X681990Y55880D02*
D03*
X671830Y58420D02*
D03*
X661670Y59690D02*
D03*
X571500Y107950D02*
D03*
X580390Y135890D02*
D03*
X558800D02*
D03*
X722630Y114808D02*
D03*
X603038Y80222D02*
D03*
X584200Y165100D02*
D03*
X1056640Y598170D02*
D03*
X852170Y600710D02*
D03*
X744220Y491490D02*
D03*
X807720Y500380D02*
D03*
X233680Y297180D02*
D03*
X1041400Y452120D02*
D03*
X1042670Y472440D02*
D03*
X180340Y645160D02*
D03*
X939800Y590550D02*
D03*
X242570Y322580D02*
D03*
X274320Y124460D02*
D03*
X961390Y643890D02*
D03*
X345440Y360680D02*
D03*
X180340Y567690D02*
D03*
X410210Y120650D02*
D03*
X236220Y608330D02*
D03*
X965200Y382270D02*
D03*
Y353060D02*
D03*
X966470Y322580D02*
D03*
X965200Y293370D02*
D03*
X617220Y449580D02*
D03*
X629920D02*
D03*
X642620D02*
D03*
X654050D02*
D03*
X690880Y413004D02*
D03*
X702310D02*
D03*
X643890D02*
D03*
X655189D02*
D03*
X679450D02*
D03*
X666750D02*
D03*
X929640Y477520D02*
D03*
X904240Y534670D02*
D03*
X869950Y416560D02*
D03*
X576580Y496570D02*
D03*
X918210Y109220D02*
D03*
X721360Y103632D02*
D03*
X772160D02*
D03*
X793750Y519430D02*
D03*
Y490220D02*
D03*
X564642Y250190D02*
D03*
X570230Y513080D02*
D03*
X764540Y742950D02*
D03*
X168910Y528320D02*
D03*
X172720Y624840D02*
D03*
X163830Y637540D02*
D03*
X920750Y773430D02*
D03*
X942340D02*
D03*
X570230Y565150D02*
D03*
X819150Y749300D02*
D03*
X530860Y80010D02*
D03*
X582930D02*
D03*
X251460Y610870D02*
D03*
X166370Y556260D02*
D03*
X153670Y562610D02*
D03*
X553720Y105410D02*
D03*
X463550Y116840D02*
D03*
X424180Y115570D02*
D03*
X415290Y138430D02*
D03*
X810260Y742950D02*
D03*
X750570D02*
D03*
X779780D02*
D03*
X599440Y135890D02*
D03*
X102870Y661670D02*
D03*
X1056640Y617220D02*
D03*
X994410Y638810D02*
D03*
X914400Y541020D02*
D03*
X943610Y610870D02*
D03*
X876300Y736600D02*
D03*
X66040Y485140D02*
D03*
X68580Y687070D02*
D03*
X71120Y637540D02*
D03*
X88900Y400050D02*
D03*
X90170Y485140D02*
D03*
X92710Y637540D02*
D03*
X104140Y712470D02*
D03*
X119380Y485140D02*
D03*
X124460Y723900D02*
D03*
X139700Y629920D02*
D03*
X149860Y438150D02*
D03*
X152541Y723759D02*
D03*
X161290Y491490D02*
D03*
X69850Y341630D02*
D03*
X72390Y318770D02*
D03*
X101459Y308469D02*
D03*
X102870Y328930D02*
D03*
X542290Y80010D02*
D03*
X532130Y476250D02*
D03*
X554990D02*
D03*
X789940Y45720D02*
D03*
X821690Y518160D02*
D03*
Y535940D02*
D03*
X734060Y742950D02*
D03*
X834390Y610870D02*
D03*
X562610Y80010D02*
D03*
X46990Y224790D02*
D03*
X72390Y210820D02*
D03*
X95250Y237490D02*
D03*
X180340D02*
D03*
X181610Y393700D02*
D03*
X198896Y259856D02*
D03*
X199390Y251460D02*
D03*
X359410Y242570D02*
D03*
Y363220D02*
D03*
X165100Y688340D02*
D03*
X646430Y135890D02*
D03*
X662940D02*
D03*
D84*
X24130Y22860D02*
D03*
X22860Y783590D02*
D03*
X1485900Y25400D02*
D03*
Y784860D02*
D03*
D85*
X960882Y703580D02*
D03*
X1027430Y647700D02*
D03*
X1264920Y655320D02*
D03*
X1003300Y647700D02*
D03*
X1049020Y657860D02*
D03*
X934720Y664210D02*
D03*
X993140Y703580D02*
D03*
X1074420Y767080D02*
D03*
X1056640D02*
D03*
D86*
X1131570Y198120D02*
D03*
X1431290Y199390D02*
D03*
Y499110D02*
D03*
X1131570Y497840D02*
D03*
M02*
