G04*
G04 #@! TF.GenerationSoftware,Altium Limited,Altium Designer,24.2.2 (26)*
G04*
G04 Layer_Color=8388736*
%FSLAX44Y44*%
%MOMM*%
G71*
G04*
G04 #@! TF.SameCoordinates,645CA30E-D4FA-4833-928D-5676ED25105E*
G04*
G04*
G04 #@! TF.FilePolarity,Negative*
G04*
G01*
G75*
%ADD26R,0.6000X0.7000*%
%ADD34R,0.4032X0.9032*%
%ADD35R,1.0032X1.0032*%
%ADD36R,1.4032X1.7032*%
%ADD37R,0.4000X2.0000*%
%ADD38R,1.0032X1.0032*%
%ADD39R,1.7032X1.4032*%
%ADD40R,2.0532X0.8032*%
%ADD41R,1.8532X0.8032*%
%ADD42R,0.8032X1.4532*%
%ADD43R,1.4032X1.0032*%
%ADD44R,2.2032X1.7032*%
G04:AMPARAMS|DCode=45|XSize=2.1732mm|YSize=0.8032mm|CornerRadius=0.1766mm|HoleSize=0mm|Usage=FLASHONLY|Rotation=270.000|XOffset=0mm|YOffset=0mm|HoleType=Round|Shape=RoundedRectangle|*
%AMROUNDEDRECTD45*
21,1,2.1732,0.4500,0,0,270.0*
21,1,1.8200,0.8032,0,0,270.0*
1,1,0.3532,-0.2250,-0.9100*
1,1,0.3532,-0.2250,0.9100*
1,1,0.3532,0.2250,0.9100*
1,1,0.3532,0.2250,-0.9100*
%
%ADD45ROUNDEDRECTD45*%
%ADD46R,0.8782X0.4532*%
%ADD47R,0.4532X0.7782*%
%ADD48R,0.6032X0.6032*%
%ADD49O,3.2192X1.7112*%
%ADD50O,1.7112X3.2192*%
%ADD51C,1.7272*%
%ADD52R,1.7272X1.7272*%
%ADD53C,3.4544*%
%ADD54C,2.1082*%
%ADD55C,2.5654*%
%ADD56C,2.0950*%
%ADD57C,1.7032*%
%ADD58C,1.8532*%
%ADD59C,1.6312*%
%ADD60R,1.7272X1.7272*%
%ADD61C,2.5032*%
%ADD62R,1.6312X1.6312*%
%ADD63C,0.7112*%
%ADD64C,3.2032*%
%ADD65C,0.9652*%
%ADD66C,1.5000*%
%ADD67C,3.2032*%
D26*
X59690Y210820D02*
D03*
X49690D02*
D03*
D34*
X519430Y431480D02*
D03*
Y462280D02*
D03*
X523430Y431480D02*
D03*
Y462280D02*
D03*
X527430Y431480D02*
D03*
Y462280D02*
D03*
X531430Y431480D02*
D03*
Y462280D02*
D03*
X535430Y431480D02*
D03*
Y462280D02*
D03*
X539430Y431480D02*
D03*
Y462280D02*
D03*
X543430Y431480D02*
D03*
Y462280D02*
D03*
X547430Y431480D02*
D03*
Y462280D02*
D03*
X551430Y431480D02*
D03*
Y462280D02*
D03*
X555430Y431480D02*
D03*
Y462280D02*
D03*
X559430Y431480D02*
D03*
Y462280D02*
D03*
X563430Y431480D02*
D03*
Y462280D02*
D03*
X567430Y431480D02*
D03*
Y462280D02*
D03*
X571430Y431480D02*
D03*
Y462280D02*
D03*
X575430Y431480D02*
D03*
Y462280D02*
D03*
X579430Y431480D02*
D03*
Y462280D02*
D03*
X583430Y431480D02*
D03*
Y462280D02*
D03*
X587430Y431480D02*
D03*
Y462280D02*
D03*
X591430Y431480D02*
D03*
Y462280D02*
D03*
X595430Y431480D02*
D03*
Y462280D02*
D03*
X599430Y431480D02*
D03*
Y462280D02*
D03*
X603430Y431480D02*
D03*
Y462280D02*
D03*
X607430Y431480D02*
D03*
Y462280D02*
D03*
X611430Y431480D02*
D03*
Y462280D02*
D03*
X615430Y431480D02*
D03*
Y462280D02*
D03*
X619430Y431480D02*
D03*
Y462280D02*
D03*
X623430Y431480D02*
D03*
Y462280D02*
D03*
X627430Y431480D02*
D03*
Y462280D02*
D03*
X631430Y431480D02*
D03*
Y462280D02*
D03*
X635430Y431480D02*
D03*
Y462280D02*
D03*
X639430Y431480D02*
D03*
Y462280D02*
D03*
X643430Y431480D02*
D03*
Y462280D02*
D03*
X647430Y431480D02*
D03*
Y462280D02*
D03*
X651430Y431480D02*
D03*
Y462280D02*
D03*
X655430Y431480D02*
D03*
Y462280D02*
D03*
X659430Y431480D02*
D03*
Y462280D02*
D03*
X663430Y431480D02*
D03*
Y462280D02*
D03*
X667430Y431480D02*
D03*
Y462280D02*
D03*
X671430Y431480D02*
D03*
Y462280D02*
D03*
X675430Y431480D02*
D03*
Y462280D02*
D03*
X679430Y431480D02*
D03*
Y462280D02*
D03*
X683430Y431480D02*
D03*
Y462280D02*
D03*
X687430Y431480D02*
D03*
Y462280D02*
D03*
X691430Y431480D02*
D03*
Y462280D02*
D03*
X695430Y431480D02*
D03*
Y462280D02*
D03*
X699430Y431480D02*
D03*
Y462280D02*
D03*
X703430Y431480D02*
D03*
Y462280D02*
D03*
X707430Y431480D02*
D03*
Y462280D02*
D03*
X711430Y431480D02*
D03*
Y462280D02*
D03*
X715430Y431480D02*
D03*
Y462280D02*
D03*
X518810Y92710D02*
D03*
Y123510D02*
D03*
X522810Y92710D02*
D03*
Y123510D02*
D03*
X526810Y92710D02*
D03*
Y123510D02*
D03*
X530810Y92710D02*
D03*
Y123510D02*
D03*
X534810Y92710D02*
D03*
Y123510D02*
D03*
X538810Y92710D02*
D03*
Y123510D02*
D03*
X542810Y92710D02*
D03*
Y123510D02*
D03*
X546810Y92710D02*
D03*
Y123510D02*
D03*
X550810Y92710D02*
D03*
Y123510D02*
D03*
X554810Y92710D02*
D03*
Y123510D02*
D03*
X558810Y92710D02*
D03*
Y123510D02*
D03*
X562810Y92710D02*
D03*
Y123510D02*
D03*
X566810Y92710D02*
D03*
Y123510D02*
D03*
X570810Y92710D02*
D03*
Y123510D02*
D03*
X574810Y92710D02*
D03*
Y123510D02*
D03*
X578810Y92710D02*
D03*
Y123510D02*
D03*
X582810Y92710D02*
D03*
Y123510D02*
D03*
X586810Y92710D02*
D03*
Y123510D02*
D03*
X590810Y92710D02*
D03*
Y123510D02*
D03*
X594810Y92710D02*
D03*
Y123510D02*
D03*
X598810Y92710D02*
D03*
Y123510D02*
D03*
X602810Y92710D02*
D03*
Y123510D02*
D03*
X606810Y92710D02*
D03*
Y123510D02*
D03*
X610810Y92710D02*
D03*
Y123510D02*
D03*
X614810Y92710D02*
D03*
Y123510D02*
D03*
X618810Y92710D02*
D03*
Y123510D02*
D03*
X622810Y92710D02*
D03*
Y123510D02*
D03*
X626810Y92710D02*
D03*
Y123510D02*
D03*
X630810Y92710D02*
D03*
Y123510D02*
D03*
X634810Y92710D02*
D03*
Y123510D02*
D03*
X638810Y92710D02*
D03*
Y123510D02*
D03*
X642810Y92710D02*
D03*
Y123510D02*
D03*
X646810Y92710D02*
D03*
Y123510D02*
D03*
X650810Y92710D02*
D03*
Y123510D02*
D03*
X654810Y92710D02*
D03*
Y123510D02*
D03*
X658810Y92710D02*
D03*
Y123510D02*
D03*
X662810Y92710D02*
D03*
Y123510D02*
D03*
X666810Y92710D02*
D03*
Y123510D02*
D03*
X670810Y92710D02*
D03*
Y123510D02*
D03*
X674810Y92710D02*
D03*
Y123510D02*
D03*
X678810Y92710D02*
D03*
Y123510D02*
D03*
X682810Y92710D02*
D03*
Y123510D02*
D03*
X686810Y92710D02*
D03*
Y123510D02*
D03*
X690810Y92710D02*
D03*
Y123510D02*
D03*
X694810Y92710D02*
D03*
Y123510D02*
D03*
X698810Y92710D02*
D03*
Y123510D02*
D03*
X702810Y92710D02*
D03*
Y123510D02*
D03*
X706810Y92710D02*
D03*
Y123510D02*
D03*
X710810Y92710D02*
D03*
Y123510D02*
D03*
X714810Y92710D02*
D03*
Y123510D02*
D03*
D35*
X767080Y35680D02*
D03*
Y50680D02*
D03*
X1011040Y448310D02*
D03*
X1026040D02*
D03*
X1011160Y468630D02*
D03*
X1026160D02*
D03*
X1164590Y660280D02*
D03*
Y645280D02*
D03*
X62230Y760610D02*
D03*
Y745610D02*
D03*
X67310Y435730D02*
D03*
Y450730D02*
D03*
D36*
X797220Y24130D02*
D03*
X818220D02*
D03*
X1224620Y656590D02*
D03*
X1203620D02*
D03*
X122260Y443230D02*
D03*
X101260D02*
D03*
X92710Y749300D02*
D03*
X113710D02*
D03*
X1071540Y633730D02*
D03*
X1092540D02*
D03*
X162900Y749300D02*
D03*
X141900D02*
D03*
D37*
X731250Y722550D02*
D03*
X736250D02*
D03*
X741250D02*
D03*
X746250D02*
D03*
X751250D02*
D03*
X756250D02*
D03*
X761250D02*
D03*
X766250D02*
D03*
X771250D02*
D03*
X781250D02*
D03*
X791250D02*
D03*
X796250D02*
D03*
X801250D02*
D03*
X806250D02*
D03*
X811250D02*
D03*
X816250D02*
D03*
X821250D02*
D03*
X786250D02*
D03*
X776250D02*
D03*
D38*
X90170Y516650D02*
D03*
Y501650D02*
D03*
X66040Y516650D02*
D03*
Y501650D02*
D03*
X935990Y737870D02*
D03*
Y752870D02*
D03*
X914400Y737870D02*
D03*
Y752870D02*
D03*
X1027430Y610990D02*
D03*
Y625990D02*
D03*
X1003300Y610990D02*
D03*
Y625990D02*
D03*
X66040Y652900D02*
D03*
Y667900D02*
D03*
X62230Y719970D02*
D03*
Y704970D02*
D03*
X87630Y652900D02*
D03*
Y667900D02*
D03*
X582930Y614560D02*
D03*
Y599560D02*
D03*
D39*
X1042670Y560070D02*
D03*
Y539070D02*
D03*
X1003300Y560070D02*
D03*
Y539070D02*
D03*
X99060Y604520D02*
D03*
Y583520D02*
D03*
X290830Y706460D02*
D03*
Y685460D02*
D03*
X622300Y677840D02*
D03*
Y698840D02*
D03*
X958850Y539410D02*
D03*
Y560410D02*
D03*
X868680Y541950D02*
D03*
Y562950D02*
D03*
X68580Y604860D02*
D03*
Y583860D02*
D03*
D40*
X937930Y293070D02*
D03*
Y303070D02*
D03*
Y313070D02*
D03*
Y323070D02*
D03*
Y333070D02*
D03*
Y343070D02*
D03*
Y353070D02*
D03*
Y363070D02*
D03*
Y373070D02*
D03*
Y383070D02*
D03*
Y393070D02*
D03*
Y403070D02*
D03*
Y413070D02*
D03*
Y423070D02*
D03*
Y433070D02*
D03*
D41*
X900430Y293070D02*
D03*
Y323070D02*
D03*
Y353070D02*
D03*
Y363070D02*
D03*
Y373070D02*
D03*
Y383070D02*
D03*
Y393070D02*
D03*
Y403070D02*
D03*
Y413070D02*
D03*
Y423070D02*
D03*
Y433070D02*
D03*
Y313070D02*
D03*
Y303070D02*
D03*
Y343070D02*
D03*
Y333070D02*
D03*
D42*
X934080Y708460D02*
D03*
X915040D02*
D03*
X924560Y683460D02*
D03*
D43*
X88900Y286630D02*
D03*
Y297630D02*
D03*
Y308630D02*
D03*
Y319630D02*
D03*
Y330630D02*
D03*
Y341630D02*
D03*
Y352630D02*
D03*
Y363630D02*
D03*
D44*
X66900Y388330D02*
D03*
X148900D02*
D03*
Y249430D02*
D03*
X66900D02*
D03*
D45*
X1074420Y733360D02*
D03*
X1061720D02*
D03*
X1049020D02*
D03*
X1036320D02*
D03*
Y683960D02*
D03*
X1049020D02*
D03*
X1061720D02*
D03*
X1074420D02*
D03*
D46*
X151520Y702030D02*
D03*
Y697030D02*
D03*
Y692030D02*
D03*
Y687030D02*
D03*
Y682030D02*
D03*
Y677030D02*
D03*
Y672030D02*
D03*
Y667030D02*
D03*
Y662030D02*
D03*
X120260D02*
D03*
Y667030D02*
D03*
Y672030D02*
D03*
Y677030D02*
D03*
Y682030D02*
D03*
Y687030D02*
D03*
Y692030D02*
D03*
Y697030D02*
D03*
Y702030D02*
D03*
Y707030D02*
D03*
X151520D02*
D03*
D47*
X143390Y661400D02*
D03*
X138390D02*
D03*
X133390D02*
D03*
X128390D02*
D03*
Y707660D02*
D03*
X133390D02*
D03*
X138390D02*
D03*
X143390D02*
D03*
D48*
X151700Y499810D02*
D03*
Y507810D02*
D03*
Y515810D02*
D03*
Y523810D02*
D03*
X127700D02*
D03*
Y515810D02*
D03*
Y507810D02*
D03*
Y499810D02*
D03*
D49*
X1323340Y666440D02*
D03*
Y726440D02*
D03*
D50*
X1276340Y696440D02*
D03*
D51*
X1056640Y25400D02*
D03*
X1082040D02*
D03*
X1107440D02*
D03*
X928370Y64770D02*
D03*
X953770D02*
D03*
X928370Y24130D02*
D03*
X953770D02*
D03*
X489966Y605790D02*
D03*
X500126Y580390D02*
D03*
X378206D02*
D03*
X418846D02*
D03*
X398526D02*
D03*
X429006Y605790D02*
D03*
X408686D02*
D03*
X469646D02*
D03*
X449326D02*
D03*
X479806Y580390D02*
D03*
X459486D02*
D03*
X242570Y110490D02*
D03*
Y135890D02*
D03*
X1399540Y652780D02*
D03*
Y678180D02*
D03*
Y703580D02*
D03*
Y770890D02*
D03*
Y745490D02*
D03*
X1093470Y590550D02*
D03*
X1118870D02*
D03*
X246380Y574040D02*
D03*
Y548640D02*
D03*
D52*
X1132840Y25400D02*
D03*
X388366Y605790D02*
D03*
D53*
X390906Y671830D02*
D03*
X487426D02*
D03*
D54*
X363982Y735330D02*
D03*
Y760730D02*
D03*
X514350Y709930D02*
D03*
Y735330D02*
D03*
Y760730D02*
D03*
D55*
X351282Y671830D02*
D03*
X527050D02*
D03*
D56*
X851250Y731550D02*
D03*
X706250D02*
D03*
X857250Y781050D02*
D03*
X700250D02*
D03*
D57*
X897890Y784860D02*
D03*
X993140Y220980D02*
D03*
X242570Y180340D02*
D03*
X48260Y542290D02*
D03*
X210820Y750570D02*
D03*
X260350Y309880D02*
D03*
D58*
X1228090Y739140D02*
D03*
X1177290D02*
D03*
D59*
X132410Y111920D02*
D03*
Y131920D02*
D03*
Y86920D02*
D03*
D60*
X1399540Y627380D02*
D03*
D61*
X105310Y56220D02*
D03*
Y187620D02*
D03*
D62*
X132410Y156920D02*
D03*
D63*
X866140Y78740D02*
D03*
X842010Y15240D02*
D03*
X711200Y34290D02*
D03*
X107950Y731520D02*
D03*
X203200Y233680D02*
D03*
X552450Y260350D02*
D03*
X372110Y232410D02*
D03*
X654050Y165100D02*
D03*
X849630Y414020D02*
D03*
X786130Y78740D02*
D03*
X783590Y118110D02*
D03*
X614680Y104140D02*
D03*
X662940Y77470D02*
D03*
X619760Y80010D02*
D03*
X694690Y486410D02*
D03*
X707390D02*
D03*
X681990Y476250D02*
D03*
X668020Y450850D02*
D03*
X882650Y353060D02*
D03*
X543560Y111760D02*
D03*
X822960Y7620D02*
D03*
X979170Y627380D02*
D03*
X970280Y618490D02*
D03*
X669290Y165100D02*
D03*
X679450D02*
D03*
X627380Y148590D02*
D03*
X611356Y155426D02*
D03*
X632460Y109220D02*
D03*
X646430Y103632D02*
D03*
X600710Y111760D02*
D03*
X608330Y144780D02*
D03*
X694690Y137160D02*
D03*
X858520Y405130D02*
D03*
X883920Y323850D02*
D03*
X725170Y35560D02*
D03*
X852170Y36830D02*
D03*
X605207Y449941D02*
D03*
X857250Y66040D02*
D03*
X734060D02*
D03*
X763270Y80010D02*
D03*
X735330D02*
D03*
X880110Y393700D02*
D03*
X503942Y448997D02*
D03*
X576580Y449580D02*
D03*
X516890D02*
D03*
X529590D02*
D03*
X543560D02*
D03*
X560070D02*
D03*
X595630Y411480D02*
D03*
X628650Y416560D02*
D03*
X554990Y156210D02*
D03*
X510540Y149860D02*
D03*
X519430Y80010D02*
D03*
X388620Y228600D02*
D03*
X885190Y293370D02*
D03*
X717550Y415290D02*
D03*
X543560Y476250D02*
D03*
X628650Y69850D02*
D03*
X558800Y492760D02*
D03*
X577342Y476250D02*
D03*
X701040Y59690D02*
D03*
X709930Y66040D02*
D03*
X687070D02*
D03*
X681990Y55880D02*
D03*
X671830Y58420D02*
D03*
X661670Y59690D02*
D03*
X571500Y107950D02*
D03*
X580390Y135890D02*
D03*
X558800D02*
D03*
X722630Y114808D02*
D03*
X603038Y80222D02*
D03*
X584200Y165100D02*
D03*
X1056640Y598170D02*
D03*
X852170Y600710D02*
D03*
X744220Y491490D02*
D03*
X807720Y500380D02*
D03*
X233680Y297180D02*
D03*
X1041400Y452120D02*
D03*
X1042670Y472440D02*
D03*
X180340Y645160D02*
D03*
X939800Y590550D02*
D03*
X242570Y322580D02*
D03*
X274320Y124460D02*
D03*
X961390Y643890D02*
D03*
X345440Y360680D02*
D03*
X180340Y567690D02*
D03*
X410210Y120650D02*
D03*
X236220Y608330D02*
D03*
X965200Y382270D02*
D03*
Y353060D02*
D03*
X966470Y322580D02*
D03*
X965200Y293370D02*
D03*
X617220Y449580D02*
D03*
X629920D02*
D03*
X642620D02*
D03*
X654050D02*
D03*
X690880Y413004D02*
D03*
X702310D02*
D03*
X643890D02*
D03*
X655189D02*
D03*
X679450D02*
D03*
X666750D02*
D03*
X929640Y477520D02*
D03*
X904240Y534670D02*
D03*
X869950Y416560D02*
D03*
X576580Y496570D02*
D03*
X918210Y109220D02*
D03*
X721360Y103632D02*
D03*
X772160D02*
D03*
X793750Y519430D02*
D03*
Y490220D02*
D03*
X564642Y250190D02*
D03*
X570230Y513080D02*
D03*
X764540Y742950D02*
D03*
X168910Y528320D02*
D03*
X172720Y624840D02*
D03*
X163830Y637540D02*
D03*
X920750Y773430D02*
D03*
X942340D02*
D03*
X570230Y565150D02*
D03*
X819150Y749300D02*
D03*
X530860Y80010D02*
D03*
X582930D02*
D03*
X251460Y610870D02*
D03*
X166370Y556260D02*
D03*
X153670Y562610D02*
D03*
X553720Y105410D02*
D03*
X463550Y116840D02*
D03*
X424180Y115570D02*
D03*
X415290Y138430D02*
D03*
X810260Y742950D02*
D03*
X750570D02*
D03*
X779780D02*
D03*
X599440Y135890D02*
D03*
X102870Y661670D02*
D03*
X1056640Y617220D02*
D03*
X994410Y638810D02*
D03*
X914400Y541020D02*
D03*
X943610Y610870D02*
D03*
X876300Y736600D02*
D03*
X66040Y485140D02*
D03*
X68580Y687070D02*
D03*
X71120Y637540D02*
D03*
X88900Y400050D02*
D03*
X90170Y485140D02*
D03*
X92710Y637540D02*
D03*
X104140Y712470D02*
D03*
X119380Y485140D02*
D03*
X124460Y723900D02*
D03*
X139700Y629920D02*
D03*
X149860Y438150D02*
D03*
X152541Y723759D02*
D03*
X161290Y491490D02*
D03*
X69850Y341630D02*
D03*
X72390Y318770D02*
D03*
X101459Y308469D02*
D03*
X102870Y328930D02*
D03*
X542290Y80010D02*
D03*
X532130Y476250D02*
D03*
X554990D02*
D03*
X789940Y45720D02*
D03*
X821690Y518160D02*
D03*
Y535940D02*
D03*
X734060Y742950D02*
D03*
X834390Y610870D02*
D03*
X562610Y80010D02*
D03*
X46990Y224790D02*
D03*
X72390Y210820D02*
D03*
X95250Y237490D02*
D03*
X180340D02*
D03*
X181610Y393700D02*
D03*
X198896Y259856D02*
D03*
X199390Y251460D02*
D03*
X359410Y242570D02*
D03*
Y363220D02*
D03*
X165100Y688340D02*
D03*
X646430Y135890D02*
D03*
X662940D02*
D03*
D64*
X24130Y22860D02*
D03*
X22860Y783590D02*
D03*
X1485900Y25400D02*
D03*
Y784860D02*
D03*
D65*
X960882Y703580D02*
D03*
X1027430Y647700D02*
D03*
X1264920Y655320D02*
D03*
X1003300Y647700D02*
D03*
X1049020Y657860D02*
D03*
X934720Y664210D02*
D03*
X993140Y703580D02*
D03*
X1074420Y767080D02*
D03*
X1056640D02*
D03*
D66*
X1449070Y789940D02*
D03*
X1447800Y17780D02*
D03*
X60960Y16510D02*
D03*
X59690Y789940D02*
D03*
D67*
X1131570Y198120D02*
D03*
X1431290Y199390D02*
D03*
Y499110D02*
D03*
X1131570Y497840D02*
D03*
M02*
