M48
;Layer_Color=9474304
;FILE_FORMAT=4:4
METRIC,LZ
;TYPE=PLATED
T01F00S00C0.3302
T02F00S00C0.4572
T03F00S00C0.9200
T04F00S00C1.0000
T06F00S00C1.0160
T07F00S00C1.0200
T08F00S00C1.1000
T09F00S00C1.2700
T10F00S00C1.3300
T11F00S00C1.5000
T12F00S00C1.5748
T13F00S00C2.7500
;TYPE=NON_PLATED
T14F00S00C2.3000
T15F00S00C3.2512
%
T01
X009652Y0029337
X0096647Y0032258
X0088392Y0032385
X0088519Y0029337
X0091821Y0010922
X0086614Y0007874
X0085725Y0006604
X0085217Y0003683
X0084201Y0001524
X0082296Y0000762
X0078994Y0004572
X0078613Y0007874
X0076327Y0008001
X0073533
X0073406Y0006604
X0070993
X0070104Y0005969
X0068707Y0006604
X0068199Y0005588
X0067183Y0005842
X0066167Y0005969
X0066294Y0007747
X0062865Y0006985
X0061976Y0008001
X00603038Y00080222
X0058293Y0008001
X005715Y0010795
X0060071Y0011176
X0061468Y0010414
X0063246Y0010922
X0064643Y00103632
Y0013589
X0066294
X0069469Y0013716
X0067945Y001651
X0066929
X0065405
X0062738Y0014859
X00611356Y00155426
X0060833Y0014478
X0059944Y0013589
X0058039
X005842Y001651
X0072263Y00114808
X0072136Y00103632
X0077216
X0078359Y0011811
X0072517Y0003556
X007112Y0003429
X0056261Y0008001
X0054229
X0053086
X0051943
X0054356Y0011176
X0055372Y0010541
X005588Y0013589
X0055499Y0015621
X0051054Y0014986
X0046355Y0011684
X0042418Y0011557
X0041021Y0012065
X0041529Y0013843
X0038862Y002286
X0037211Y0023241
X0035941Y0024257
X002032Y0023368
X0019939Y0025146
X00198896Y00259856
X0018034Y0023749
X0023368Y0029718
X0024257Y0032258
X0027432Y0012446
X0055245Y0026035
X00564642Y0025019
X0009525Y0023749
X0007239Y0021082
X0004699Y0022479
X0007239Y0031877
X00101459Y00308469
X0010287Y0032893
X0006985Y0034163
X000889Y0040005
X0009017Y0048514
X0006604
X0011938
X0016129Y0049149
X0014986Y0043815
X0015367Y0056261
X0016637Y0055626
X0016383Y0063754
X001397Y0062992
X0009271Y0063754
X0007112
X0006858Y0068707
X0010287Y0066167
X0010414Y0071247
X0012446Y007239
X00152541Y00723759
X001651Y0068834
X0018034Y0064516
X0017272Y0062484
X0018034Y0056769
X0016891Y0052832
X0023622Y0060833
X0025146Y0061087
X0018161Y003937
X0034544Y0036068
X0035941Y0036322
X00503942Y00448997
X0051689Y0044958
X0052959
X0054356
X0056007
X0055499Y0047625
X0054356
X0053213
X005588Y0049276
X0057658Y0049657
X00577342Y0047625
X0057658Y0044958
X00605207Y00449941
X0061722Y0044958
X0062992
X0064262
X0065405
X0066802Y0045085
X0066675Y00413004
X00655189
X0064389
X0062865Y0041656
X0059563Y0041148
X0067945Y00413004
X0069088
X0070231
X0071755Y0041529
X0070739Y0048641
X0069469
X0068199Y0047625
X0074422Y0049149
X0079375Y0049022
X0080772Y0050038
X0082169Y0051816
Y0053594
X0079375Y0051943
X0090424Y0053467
X009144Y0054102
X009398Y0059055
X0094361Y0061087
X0096139Y0064389
X0085217Y0060071
X0083439Y0061087
X0084963Y0041402
X0085852Y0040513
X0086995Y0041656
X0088011Y003937
X0088265Y0035306
X0092964Y0047752
X0057023Y0051308
Y0056515
X0097028Y0061849
X0097917Y0062738
X0099441Y0063881
X0105664Y0061722
Y0059817
X0104267Y0047244
X010414Y0045212
X009652Y0038227
Y0035306
X0094234Y0077343
X0092075
X008763Y007366
X0081915Y007493
X0081026Y0074295
X0077978
X0076454
X0075057
X0073406
X0010795Y0073152
T02
X0093472Y0066421
X00960882Y0070358
X0099314
X010033Y006477
X0102743
X0104902Y0065786
X0126492Y0065532
X0107442Y0076708
X0105664
T03
X0013241Y0008692
Y0011192
Y0013192
Y0015692
T04
X0099314Y0022098
X0024257Y0018034
X0026035Y0030988
X0004826Y0054229
X0089789Y0078486
X0021082Y0075057
T06
X00378206Y0058039
X00398526
X00418846
X00429006Y0060579
X00408686
X00388366
X00449326
X00469646
X00489966
X00500126Y0058039
X00479806
X00459486
T07
X0105664Y000254
X0108204
X0110744
X0113284
X0139954Y0062738
Y0065278
Y0067818
Y0070358
T08
X0092837Y0002413
X0095377
Y0006477
X0092837
X0024257Y0011049
Y0013589
X0024638Y0054864
Y0057404
X0109347Y0059055
X0111887
X0139954Y0074549
Y0077089
X0122809Y0073914
X0117729
T09
X0051435Y0070993
Y0073533
Y0076073
X00363982
Y0073533
T10
X0070625Y0073155
X0070025Y0078105
X0085725
X0085125Y0073155
T11
X014478Y0001778
X0006096Y0001651
X0144907Y0078994
X0005969
T12
X00351282Y0067183
X0052705
T13
X014859Y000254
X0143129Y0019939
X0113157Y0019812
X0002413Y0002286
X0113157Y0049784
X0143129Y0049911
X014859Y0078486
X0002286Y0078359
T14
X0010531Y0005622
Y0018762
T15
X00390906Y0067183
X00487426
M30
