G04*
G04 #@! TF.GenerationSoftware,Altium Limited,Altium Designer,24.2.2 (26)*
G04*
G04 Layer_Color=8421504*
%FSLAX44Y44*%
%MOMM*%
G71*
G04*
G04 #@! TF.SameCoordinates,645CA30E-D4FA-4833-928D-5676ED25105E*
G04*
G04*
G04 #@! TF.FilePolarity,Positive*
G04*
G01*
G75*
%ADD17C,1.5500*%
%ADD18R,0.2000X0.7000*%
%ADD19R,0.8000X0.8000*%
%ADD20R,1.2000X1.5000*%
%ADD21R,0.3000X1.9000*%
%ADD22R,0.8000X0.8000*%
%ADD23R,1.5000X1.2000*%
%ADD24R,1.8500X0.6000*%
%ADD25R,1.6500X0.6000*%
%ADD26R,0.6000X0.7000*%
%ADD27R,0.6000X1.2500*%
%ADD28R,1.2000X0.8000*%
%ADD29R,2.0000X1.5000*%
G04:AMPARAMS|DCode=30|XSize=1.97mm|YSize=0.6mm|CornerRadius=0.075mm|HoleSize=0mm|Usage=FLASHONLY|Rotation=270.000|XOffset=0mm|YOffset=0mm|HoleType=Round|Shape=RoundedRectangle|*
%AMROUNDEDRECTD30*
21,1,1.9700,0.4500,0,0,270.0*
21,1,1.8200,0.6000,0,0,270.0*
1,1,0.1500,-0.2250,-0.9100*
1,1,0.1500,-0.2250,0.9100*
1,1,0.1500,0.2250,0.9100*
1,1,0.1500,0.2250,-0.9100*
%
%ADD30ROUNDEDRECTD30*%
%ADD31R,0.6750X0.2500*%
%ADD32R,0.2500X0.5750*%
%ADD33R,0.4000X0.4000*%
D17*
X1449070Y789940D02*
D03*
X1447800Y17780D02*
D03*
X60960Y16510D02*
D03*
X59690Y789940D02*
D03*
D18*
X519430Y431480D02*
D03*
Y462280D02*
D03*
X523430Y431480D02*
D03*
Y462280D02*
D03*
X527430Y431480D02*
D03*
Y462280D02*
D03*
X531430Y431480D02*
D03*
Y462280D02*
D03*
X535430Y431480D02*
D03*
Y462280D02*
D03*
X539430Y431480D02*
D03*
Y462280D02*
D03*
X543430Y431480D02*
D03*
Y462280D02*
D03*
X547430Y431480D02*
D03*
Y462280D02*
D03*
X551430Y431480D02*
D03*
Y462280D02*
D03*
X555430Y431480D02*
D03*
Y462280D02*
D03*
X559430Y431480D02*
D03*
Y462280D02*
D03*
X563430Y431480D02*
D03*
Y462280D02*
D03*
X567430Y431480D02*
D03*
Y462280D02*
D03*
X571430Y431480D02*
D03*
Y462280D02*
D03*
X575430Y431480D02*
D03*
Y462280D02*
D03*
X579430Y431480D02*
D03*
Y462280D02*
D03*
X583430Y431480D02*
D03*
Y462280D02*
D03*
X587430Y431480D02*
D03*
Y462280D02*
D03*
X591430Y431480D02*
D03*
Y462280D02*
D03*
X595430Y431480D02*
D03*
Y462280D02*
D03*
X599430Y431480D02*
D03*
Y462280D02*
D03*
X603430Y431480D02*
D03*
Y462280D02*
D03*
X607430Y431480D02*
D03*
Y462280D02*
D03*
X611430Y431480D02*
D03*
Y462280D02*
D03*
X615430Y431480D02*
D03*
Y462280D02*
D03*
X619430Y431480D02*
D03*
Y462280D02*
D03*
X623430Y431480D02*
D03*
Y462280D02*
D03*
X627430Y431480D02*
D03*
Y462280D02*
D03*
X631430Y431480D02*
D03*
Y462280D02*
D03*
X635430Y431480D02*
D03*
Y462280D02*
D03*
X639430Y431480D02*
D03*
Y462280D02*
D03*
X643430Y431480D02*
D03*
Y462280D02*
D03*
X647430Y431480D02*
D03*
Y462280D02*
D03*
X651430Y431480D02*
D03*
Y462280D02*
D03*
X655430Y431480D02*
D03*
Y462280D02*
D03*
X659430Y431480D02*
D03*
Y462280D02*
D03*
X663430Y431480D02*
D03*
Y462280D02*
D03*
X667430Y431480D02*
D03*
Y462280D02*
D03*
X671430Y431480D02*
D03*
Y462280D02*
D03*
X675430Y431480D02*
D03*
Y462280D02*
D03*
X679430Y431480D02*
D03*
Y462280D02*
D03*
X683430Y431480D02*
D03*
Y462280D02*
D03*
X687430Y431480D02*
D03*
Y462280D02*
D03*
X691430Y431480D02*
D03*
Y462280D02*
D03*
X695430Y431480D02*
D03*
Y462280D02*
D03*
X699430Y431480D02*
D03*
Y462280D02*
D03*
X703430Y431480D02*
D03*
Y462280D02*
D03*
X707430Y431480D02*
D03*
Y462280D02*
D03*
X711430Y431480D02*
D03*
Y462280D02*
D03*
X715430Y431480D02*
D03*
Y462280D02*
D03*
X518810Y92710D02*
D03*
Y123510D02*
D03*
X522810Y92710D02*
D03*
Y123510D02*
D03*
X526810Y92710D02*
D03*
Y123510D02*
D03*
X530810Y92710D02*
D03*
Y123510D02*
D03*
X534810Y92710D02*
D03*
Y123510D02*
D03*
X538810Y92710D02*
D03*
Y123510D02*
D03*
X542810Y92710D02*
D03*
Y123510D02*
D03*
X546810Y92710D02*
D03*
Y123510D02*
D03*
X550810Y92710D02*
D03*
Y123510D02*
D03*
X554810Y92710D02*
D03*
Y123510D02*
D03*
X558810Y92710D02*
D03*
Y123510D02*
D03*
X562810Y92710D02*
D03*
Y123510D02*
D03*
X566810Y92710D02*
D03*
Y123510D02*
D03*
X570810Y92710D02*
D03*
Y123510D02*
D03*
X574810Y92710D02*
D03*
Y123510D02*
D03*
X578810Y92710D02*
D03*
Y123510D02*
D03*
X582810Y92710D02*
D03*
Y123510D02*
D03*
X586810Y92710D02*
D03*
Y123510D02*
D03*
X590810Y92710D02*
D03*
Y123510D02*
D03*
X594810Y92710D02*
D03*
Y123510D02*
D03*
X598810Y92710D02*
D03*
Y123510D02*
D03*
X602810Y92710D02*
D03*
Y123510D02*
D03*
X606810Y92710D02*
D03*
Y123510D02*
D03*
X610810Y92710D02*
D03*
Y123510D02*
D03*
X614810Y92710D02*
D03*
Y123510D02*
D03*
X618810Y92710D02*
D03*
Y123510D02*
D03*
X622810Y92710D02*
D03*
Y123510D02*
D03*
X626810Y92710D02*
D03*
Y123510D02*
D03*
X630810Y92710D02*
D03*
Y123510D02*
D03*
X634810Y92710D02*
D03*
Y123510D02*
D03*
X638810Y92710D02*
D03*
Y123510D02*
D03*
X642810Y92710D02*
D03*
Y123510D02*
D03*
X646810Y92710D02*
D03*
Y123510D02*
D03*
X650810Y92710D02*
D03*
Y123510D02*
D03*
X654810Y92710D02*
D03*
Y123510D02*
D03*
X658810Y92710D02*
D03*
Y123510D02*
D03*
X662810Y92710D02*
D03*
Y123510D02*
D03*
X666810Y92710D02*
D03*
Y123510D02*
D03*
X670810Y92710D02*
D03*
Y123510D02*
D03*
X674810Y92710D02*
D03*
Y123510D02*
D03*
X678810Y92710D02*
D03*
Y123510D02*
D03*
X682810Y92710D02*
D03*
Y123510D02*
D03*
X686810Y92710D02*
D03*
Y123510D02*
D03*
X690810Y92710D02*
D03*
Y123510D02*
D03*
X694810Y92710D02*
D03*
Y123510D02*
D03*
X698810Y92710D02*
D03*
Y123510D02*
D03*
X702810Y92710D02*
D03*
Y123510D02*
D03*
X706810Y92710D02*
D03*
Y123510D02*
D03*
X710810Y92710D02*
D03*
Y123510D02*
D03*
X714810Y92710D02*
D03*
Y123510D02*
D03*
D19*
X767080Y35680D02*
D03*
Y50680D02*
D03*
X1011040Y448310D02*
D03*
X1026040D02*
D03*
X1011160Y468630D02*
D03*
X1026160D02*
D03*
X1164590Y660280D02*
D03*
Y645280D02*
D03*
X62230Y760610D02*
D03*
Y745610D02*
D03*
X67310Y435730D02*
D03*
Y450730D02*
D03*
D20*
X797220Y24130D02*
D03*
X818220D02*
D03*
X1224620Y656590D02*
D03*
X1203620D02*
D03*
X122260Y443230D02*
D03*
X101260D02*
D03*
X92710Y749300D02*
D03*
X113710D02*
D03*
X1071540Y633730D02*
D03*
X1092540D02*
D03*
X162900Y749300D02*
D03*
X141900D02*
D03*
D21*
X731250Y722550D02*
D03*
X736250D02*
D03*
X741250D02*
D03*
X746250D02*
D03*
X751250D02*
D03*
X756250D02*
D03*
X761250D02*
D03*
X766250D02*
D03*
X771250D02*
D03*
X781250D02*
D03*
X791250D02*
D03*
X796250D02*
D03*
X801250D02*
D03*
X806250D02*
D03*
X811250D02*
D03*
X816250D02*
D03*
X821250D02*
D03*
X786250D02*
D03*
X776250D02*
D03*
D22*
X90170Y516650D02*
D03*
Y501650D02*
D03*
X66040Y516650D02*
D03*
Y501650D02*
D03*
X935990Y737870D02*
D03*
Y752870D02*
D03*
X914400Y737870D02*
D03*
Y752870D02*
D03*
X1027430Y610990D02*
D03*
Y625990D02*
D03*
X1003300Y610990D02*
D03*
Y625990D02*
D03*
X66040Y652900D02*
D03*
Y667900D02*
D03*
X62230Y719970D02*
D03*
Y704970D02*
D03*
X87630Y652900D02*
D03*
Y667900D02*
D03*
X582930Y614560D02*
D03*
Y599560D02*
D03*
D23*
X1042670Y560070D02*
D03*
Y539070D02*
D03*
X1003300Y560070D02*
D03*
Y539070D02*
D03*
X99060Y604520D02*
D03*
Y583520D02*
D03*
X290830Y706460D02*
D03*
Y685460D02*
D03*
X622300Y677840D02*
D03*
Y698840D02*
D03*
X958850Y539410D02*
D03*
Y560410D02*
D03*
X868680Y541950D02*
D03*
Y562950D02*
D03*
X68580Y604860D02*
D03*
Y583860D02*
D03*
D24*
X937930Y293070D02*
D03*
Y303070D02*
D03*
Y313070D02*
D03*
Y323070D02*
D03*
Y333070D02*
D03*
Y343070D02*
D03*
Y353070D02*
D03*
Y363070D02*
D03*
Y373070D02*
D03*
Y383070D02*
D03*
Y393070D02*
D03*
Y403070D02*
D03*
Y413070D02*
D03*
Y423070D02*
D03*
Y433070D02*
D03*
D25*
X900430Y293070D02*
D03*
Y323070D02*
D03*
Y353070D02*
D03*
Y363070D02*
D03*
Y373070D02*
D03*
Y383070D02*
D03*
Y393070D02*
D03*
Y403070D02*
D03*
Y413070D02*
D03*
Y423070D02*
D03*
Y433070D02*
D03*
Y313070D02*
D03*
Y303070D02*
D03*
Y343070D02*
D03*
Y333070D02*
D03*
D26*
X59690Y210820D02*
D03*
X49690D02*
D03*
D27*
X934080Y708460D02*
D03*
X915040D02*
D03*
X924560Y683460D02*
D03*
D28*
X88900Y286630D02*
D03*
Y297630D02*
D03*
Y308630D02*
D03*
Y319630D02*
D03*
Y330630D02*
D03*
Y341630D02*
D03*
Y352630D02*
D03*
Y363630D02*
D03*
D29*
X66900Y388330D02*
D03*
X148900D02*
D03*
Y249430D02*
D03*
X66900D02*
D03*
D30*
X1074420Y733360D02*
D03*
X1061720D02*
D03*
X1049020D02*
D03*
X1036320D02*
D03*
Y683960D02*
D03*
X1049020D02*
D03*
X1061720D02*
D03*
X1074420D02*
D03*
D31*
X151520Y702030D02*
D03*
Y697030D02*
D03*
Y692030D02*
D03*
Y687030D02*
D03*
Y682030D02*
D03*
Y677030D02*
D03*
Y672030D02*
D03*
Y667030D02*
D03*
Y662030D02*
D03*
X120260D02*
D03*
Y667030D02*
D03*
Y672030D02*
D03*
Y677030D02*
D03*
Y682030D02*
D03*
Y687030D02*
D03*
Y692030D02*
D03*
Y697030D02*
D03*
Y702030D02*
D03*
Y707030D02*
D03*
X151520D02*
D03*
D32*
X143390Y661400D02*
D03*
X138390D02*
D03*
X133390D02*
D03*
X128390D02*
D03*
Y707660D02*
D03*
X133390D02*
D03*
X138390D02*
D03*
X143390D02*
D03*
D33*
X151700Y499810D02*
D03*
Y507810D02*
D03*
Y515810D02*
D03*
Y523810D02*
D03*
X127700D02*
D03*
Y515810D02*
D03*
Y507810D02*
D03*
Y499810D02*
D03*
M02*
